<svg width="121" height="119" viewBox="0 0 121 119" fill="none" xmlns="http://www.w3.org/2000/svg">
<g clip-path="url(#clip0_311_50422)">
<g filter="url(#filter0_i_311_50422)">
<rect y="22.582" width="12.9036" height="96.4187" fill="url(#paint0_linear_311_50422)"/>
<rect x="0.0793772" y="22.6614" width="12.7449" height="96.2599" stroke="#C8C8C7" stroke-width="0.158754"/>
<path d="M6.18966 46.0891L6.76483 46.1542V46.1802L8.12138 46.4494V46.7641L7.57442 46.7858V46.6534L6.18966 46.3626V46.0891ZM5.03931 45.1167H8.12138V45.6094H5.03931V45.1167ZM6.18966 45.9632L7.57442 45.6724V45.54L8.12138 45.5617V45.8764L6.76483 46.1455V46.1629L6.18966 46.2171V45.9632ZM5.03931 46.7163H8.12138V47.209H5.03931V46.7163ZM5.0176 49.2102L5.69913 49.169L5.95525 49.1386H6.46314C6.5977 49.1386 6.6961 49.0858 6.75832 48.9802C6.82199 48.8745 6.85671 48.7168 6.8625 48.507L6.8777 47.934L7.36171 47.9774L7.3552 48.4636C7.34941 48.8658 7.26693 49.1646 7.10777 49.36C6.95004 49.5553 6.71925 49.653 6.41539 49.653H5.52115L5.4734 50.0003H5.03931L5.0176 49.2102ZM4.9959 48.418C4.9959 48.1749 5.05522 47.9861 5.17388 47.8515C5.29253 47.7184 5.46038 47.6518 5.67743 47.6518C5.9292 47.6518 6.12237 47.7415 6.25694 47.921C6.39151 48.1004 6.45879 48.3543 6.45879 48.6828C6.45879 48.813 6.45156 48.9273 6.43709 49.0257C6.42262 49.1241 6.40019 49.2182 6.36981 49.3079L5.97044 49.2124C5.99214 49.1183 6.00444 49.0308 6.00734 48.9498C6.01168 48.8687 6.01385 48.7841 6.01385 48.6958C6.01385 48.3543 5.91328 48.1836 5.71215 48.1836C5.62389 48.1836 5.5566 48.2133 5.5103 48.2726C5.464 48.3333 5.44084 48.4209 5.44084 48.5352C5.44084 48.6683 5.46472 48.7797 5.51247 48.8695C5.56167 48.9592 5.62316 49.0265 5.69696 49.0713C5.7722 49.1162 5.84962 49.1386 5.9292 49.1386H6.11586L5.52549 49.2428V49.0583L5.59495 49.1343C5.46183 49.1314 5.35041 49.1002 5.26069 49.0409C5.17243 48.983 5.10587 48.9013 5.06101 48.7957C5.0176 48.69 4.9959 48.5641 4.9959 48.418ZM4.9959 51.194C4.9959 51.0189 5.00169 50.8663 5.01326 50.7361C5.02339 50.6058 5.03931 50.4894 5.06101 50.3866L5.56456 50.4496C5.54141 50.6189 5.52405 50.7643 5.51247 50.8858C5.50089 51.0074 5.49511 51.1101 5.49511 51.194C5.49511 51.4053 5.51247 51.5579 5.5472 51.652C5.58192 51.7475 5.63691 51.7953 5.71215 51.7953C5.7599 51.7953 5.7968 51.7815 5.82285 51.754C5.84889 51.7265 5.86987 51.6831 5.88579 51.6238L6.07028 50.9618C6.12092 50.7795 6.19038 50.6435 6.27865 50.5537C6.36836 50.4655 6.49425 50.4213 6.65631 50.4213C6.90519 50.4213 7.08823 50.5219 7.20544 50.723C7.32409 50.9256 7.38342 51.2403 7.38342 51.6672C7.38342 51.7714 7.3798 51.8741 7.37256 51.9754C7.36533 52.0781 7.35448 52.1852 7.34001 52.2966L6.85382 52.2402C6.8654 52.1143 6.87335 52.0036 6.8777 51.9081C6.88204 51.8141 6.88421 51.7294 6.88421 51.6542C6.88421 51.4154 6.86757 51.2418 6.83429 51.1333C6.80101 51.0262 6.74747 50.9726 6.67367 50.9726C6.62447 50.9726 6.5883 50.9886 6.56515 51.0204C6.542 51.0522 6.52174 51.1014 6.50437 51.168L6.35461 51.7236C6.29963 51.9392 6.22221 52.0984 6.12237 52.2011C6.02253 52.3053 5.88651 52.3574 5.71432 52.3574C5.46834 52.3574 5.28674 52.2626 5.16953 52.0731C5.05378 51.885 4.9959 51.592 4.9959 51.194ZM4.9959 54.4367C4.9959 54.0591 5.07259 53.7863 5.22597 53.6184C5.37935 53.4506 5.62461 53.3667 5.96176 53.3667H6.29818L6.29818 53.9006H6.00517C5.82719 53.9006 5.69768 53.9455 5.61665 54.0352C5.53562 54.1263 5.49511 54.2747 5.49511 54.4801C5.49511 54.5481 5.49872 54.6212 5.50596 54.6993C5.51464 54.7775 5.52549 54.8665 5.53852 54.9663L5.04799 55.0184C5.03062 54.9215 5.0176 54.826 5.00892 54.7319C5.00024 54.6393 4.9959 54.5409 4.9959 54.4367ZM6.14625 53.3667H8.03456V53.9006H6.14625L6.14625 53.3667ZM6.85382 52.8045H7.34001V54.9316H6.85382L6.85382 52.8045ZM4.9959 56.77C4.9959 56.3749 5.09863 56.0696 5.3041 55.854C5.51102 55.6384 5.80765 55.5306 6.194 55.5306C6.57021 55.5306 6.8625 55.6218 7.07087 55.8041C7.27923 55.9879 7.38342 56.2462 7.38342 56.579C7.38342 56.9002 7.28791 57.1484 7.09691 57.3234C6.90591 57.5 6.62882 57.5882 6.26562 57.5882C6.15999 57.5882 6.06088 57.5839 5.96827 57.5752V55.917H6.35461V57.076C6.5297 57.076 6.66427 57.0326 6.75832 56.9458C6.85237 56.859 6.8994 56.7381 6.8994 56.5833C6.8994 56.414 6.84007 56.2823 6.72142 56.1883C6.60277 56.0942 6.4342 56.0472 6.2157 56.0472C5.97984 56.0472 5.7997 56.1145 5.67525 56.2491C5.55226 56.3836 5.49076 56.5746 5.49076 56.8221C5.49076 56.9234 5.49583 57.0225 5.50596 57.1194C5.51753 57.2178 5.53273 57.3177 5.55154 57.4189L5.05667 57.4754C5.03062 57.3336 5.01398 57.2033 5.00675 57.0847C4.99951 56.966 4.9959 56.8611 4.9959 56.77ZM6.02904 59.0663L6.79305 58.9318V59.1228C7.18663 59.1474 7.38342 59.3492 7.38342 59.7283C7.38342 59.9541 7.30817 60.1233 7.15769 60.2362C7.0072 60.3491 6.78002 60.4055 6.47616 60.4055V59.8716C6.6252 59.8716 6.73227 59.8463 6.79739 59.7956C6.8625 59.7464 6.89506 59.6668 6.89506 59.5569C6.89506 59.3919 6.81982 59.2689 6.66933 59.1879C6.51884 59.1068 6.30541 59.0663 6.02904 59.0663ZM5.03931 58.0354H5.50379V59.6155H5.03931V58.0354ZM5.03931 58.5324H7.34001V58.9795L6.68018 59.0663H5.03931V58.5324ZM6.87553 58.1222H7.34001V58.9491L6.87553 58.9925V58.1222ZM5.9509 63.8891H6.43275V64.3471C6.43275 64.5555 6.48773 64.7146 6.5977 64.8246C6.70768 64.936 6.86395 64.9917 7.06653 64.9917C7.25174 64.9917 7.39354 64.936 7.49194 64.8246C7.59033 64.7146 7.63953 64.5555 7.63953 64.3471V63.8978H8.12138V64.3471C8.12138 64.7334 8.03239 65.0293 7.85441 65.2348C7.67643 65.4417 7.42104 65.5452 7.08823 65.5452C6.72215 65.5452 6.44071 65.4417 6.24392 65.2348C6.04858 65.0293 5.9509 64.7334 5.9509 64.3471V63.8891ZM5.03931 63.4181H8.12138V63.9412H5.03931V63.4181ZM6.02904 66.88L6.79305 66.7455V66.9365C7.18663 66.9611 7.38342 67.1629 7.38342 67.542C7.38342 67.7677 7.30817 67.937 7.15769 68.0499C7.0072 68.1628 6.78002 68.2192 6.47616 68.2192V67.6853C6.6252 67.6853 6.73227 67.6599 6.79739 67.6093C6.8625 67.5601 6.89506 67.4805 6.89506 67.3706C6.89506 67.2056 6.81982 67.0826 6.66933 67.0016C6.51884 66.9205 6.30541 66.88 6.02904 66.88ZM5.03931 65.8491H5.50379V67.4292H5.03931V65.8491ZM5.03931 66.3461H7.34001V66.7932L6.68018 66.88H5.03931V66.3461ZM6.87553 65.9359H7.34001V66.7628L6.87553 66.8062V65.9359ZM4.9959 69.604C4.9959 69.2784 5.10008 69.0252 5.30845 68.8443C5.51681 68.6649 5.81055 68.5752 6.18966 68.5752C6.57021 68.5752 6.86395 68.6649 7.07087 68.8443C7.27923 69.0252 7.38342 69.2784 7.38342 69.604C7.38342 69.931 7.27923 70.1842 7.07087 70.3636C6.86395 70.5431 6.57021 70.6328 6.18966 70.6328C5.81055 70.6328 5.51681 70.5431 5.30845 70.3636C5.10008 70.1842 4.9959 69.931 4.9959 69.604ZM5.49511 69.604C5.49511 69.7573 5.55516 69.8753 5.67525 69.9578C5.7968 70.0402 5.96827 70.0815 6.18966 70.0815C6.41249 70.0815 6.58396 70.0395 6.70406 69.9556C6.82416 69.8731 6.88421 69.7559 6.88421 69.604C6.88421 69.452 6.82416 69.3341 6.70406 69.2502C6.58396 69.1677 6.41249 69.1265 6.18966 69.1265C5.96827 69.1265 5.7968 69.1677 5.67525 69.2502C5.55516 69.3341 5.49511 69.452 5.49511 69.604ZM5.03931 72.7598H6.67801C6.83718 72.7598 6.91676 72.7085 6.91676 72.6057C6.91676 72.4827 6.82343 72.4212 6.63677 72.4212L7.0535 72.265V72.4538C7.15045 72.4639 7.22931 72.5015 7.29009 72.5667C7.35231 72.6332 7.38342 72.7244 7.38342 72.8401C7.38342 72.9964 7.34073 73.11 7.25536 73.1809C7.16999 73.2533 7.0318 73.2894 6.8408 73.2894H5.03931V72.7598ZM5.03931 71.1276H7.34001V71.6073L6.85382 71.6594H5.03931V71.1276ZM5.03931 72.0023H6.72142C6.85165 72.0023 6.91676 71.9502 6.91676 71.8461C6.91676 71.7216 6.82343 71.6594 6.63677 71.6594L7.0535 71.5248V71.6833C7.27345 71.7093 7.38342 71.8316 7.38342 72.0501C7.38342 72.1658 7.34218 72.2563 7.2597 72.3214C7.17722 72.388 7.05206 72.4212 6.88421 72.4212H5.03931V72.0023ZM4.04089 73.8537H7.34001V74.3464L6.85382 74.3899H4.04089V73.8537ZM4.9959 75.0193C4.9959 74.8529 5.03497 74.719 5.1131 74.6178C5.19124 74.5165 5.30555 74.4557 5.45604 74.4354V74.2336L6.1571 74.3899C5.92848 74.3899 5.75918 74.4282 5.64921 74.5049C5.53924 74.583 5.48425 74.7082 5.48425 74.8804C5.48425 75.0468 5.54286 75.1727 5.66006 75.258C5.77727 75.3434 5.95018 75.3861 6.1788 75.3861C6.41032 75.3861 6.58758 75.3427 6.71057 75.2559C6.83356 75.1691 6.89506 75.0439 6.89506 74.8804C6.89506 74.7183 6.83935 74.5961 6.72793 74.5136C6.61796 74.4311 6.44867 74.3899 6.22004 74.3899L6.92328 74.2466V74.4202C7.07376 74.4448 7.18807 74.5063 7.26621 74.6047C7.34435 74.7031 7.38342 74.8406 7.38342 75.0171C7.38342 75.3109 7.27996 75.5359 7.07304 75.6921C6.86612 75.8499 6.56804 75.9287 6.1788 75.9287C5.79535 75.9287 5.50234 75.8499 5.29976 75.6921C5.09719 75.5359 4.9959 75.3116 4.9959 75.0193ZM4.9959 77.8778C4.9959 77.5001 5.07259 77.2274 5.22597 77.0595C5.37935 76.8917 5.62461 76.8078 5.96176 76.8078H6.29818V77.3417H6.00517C5.82719 77.3417 5.69768 77.3866 5.61665 77.4763C5.53562 77.5674 5.49511 77.7157 5.49511 77.9212C5.49511 77.9892 5.49872 78.0623 5.50596 78.1404C5.51464 78.2186 5.52549 78.3076 5.53852 78.4074L5.04799 78.4595C5.03062 78.3625 5.0176 78.267 5.00892 78.173C5.00024 78.0804 4.9959 77.982 4.9959 77.8778ZM6.14625 76.8078H8.03456V77.3417H6.14625V76.8078ZM6.85382 76.2456H7.34001V78.3727H6.85382V76.2456ZM4.9959 82.5204C4.9959 82.3454 5.01037 82.1775 5.03931 82.0169C5.06825 81.8577 5.11021 81.713 5.16519 81.5828L5.69262 81.6523C5.62461 81.8114 5.57252 81.9677 5.53634 82.1211C5.50162 82.2745 5.48425 82.4192 5.48425 82.5552C5.48425 82.7288 5.51464 82.8598 5.57541 82.948C5.63763 83.0377 5.72807 83.0826 5.84672 83.0826C6.00155 83.0826 6.11948 82.9943 6.20051 82.8178L6.42841 82.3381C6.5297 82.1225 6.65486 81.9561 6.8039 81.8389C6.95294 81.7232 7.12441 81.6653 7.3183 81.6653C7.58744 81.6653 7.79581 81.7506 7.9434 81.9214C8.09099 82.0936 8.16479 82.3367 8.16479 82.6507C8.16479 82.8475 8.13223 83.0283 8.06711 83.1933C8.00345 83.3597 7.9065 83.5116 7.77627 83.6491L7.38125 83.291C7.47964 83.1795 7.55344 83.071 7.60263 82.9654C7.65328 82.8612 7.6786 82.757 7.6786 82.6528C7.6786 82.5168 7.64749 82.4112 7.58527 82.336C7.5245 82.2607 7.43551 82.2231 7.3183 82.2231C7.23727 82.2231 7.16564 82.2484 7.10342 82.2991C7.04265 82.3511 6.98767 82.4257 6.93847 82.5226L6.72359 82.9545C6.61362 83.1759 6.48629 83.3452 6.34159 83.4624C6.19834 83.5811 6.03266 83.6404 5.84455 83.6404C5.56818 83.6404 5.35764 83.5449 5.21294 83.3539C5.06825 83.1643 4.9959 82.8865 4.9959 82.5204ZM3.99748 84.0702L4.46847 84.0485L4.51188 84.4305C4.52925 84.5723 4.56759 84.6938 4.62692 84.7951C4.68624 84.8964 4.77451 84.9832 4.89171 85.0556C5.00892 85.1279 5.1623 85.1908 5.35185 85.2444L7.34001 85.8065V86.3709L5.24333 85.7175C4.96696 85.6307 4.74485 85.5316 4.577 85.4202C4.40915 85.3102 4.28326 85.1793 4.19933 85.0273C4.11541 84.8754 4.06259 84.6938 4.04089 84.4825L3.99748 84.0702ZM5.03931 84.8559L7.34001 84.0267V84.5911L5.47774 85.2335V85.3247H5.03931V84.8559ZM4.9959 87.6579C4.9959 87.4829 5.00169 87.3302 5.01326 87.2C5.02339 87.0697 5.03931 86.9533 5.06101 86.8505L5.56456 86.9135C5.54141 87.0828 5.52405 87.2282 5.51247 87.3497C5.50089 87.4713 5.49511 87.574 5.49511 87.6579C5.49511 87.8692 5.51247 88.0219 5.5472 88.1159C5.58192 88.2114 5.63691 88.2592 5.71215 88.2592C5.7599 88.2592 5.7968 88.2454 5.82285 88.2179C5.84889 88.1904 5.86987 88.147 5.88579 88.0877L6.07028 87.4257C6.12092 87.2434 6.19038 87.1074 6.27865 87.0177C6.36836 86.9294 6.49425 86.8853 6.65631 86.8853C6.90519 86.8853 7.08823 86.9858 7.20544 87.187C7.32409 87.3895 7.38342 87.7042 7.38342 88.1311C7.38342 88.2353 7.3798 88.338 7.37256 88.4393C7.36533 88.5421 7.35448 88.6491 7.34001 88.7605L6.85382 88.7041C6.8654 88.5782 6.87335 88.4675 6.8777 88.372C6.88204 88.278 6.88421 88.1933 6.88421 88.1181C6.88421 87.8793 6.86757 87.7057 6.83429 87.5972C6.80101 87.4901 6.74747 87.4366 6.67367 87.4366C6.62447 87.4366 6.5883 87.4525 6.56515 87.4843C6.542 87.5161 6.52174 87.5653 6.50437 87.6319L6.35461 88.1875C6.29963 88.4031 6.22221 88.5623 6.12237 88.665C6.02253 88.7692 5.88651 88.8213 5.71432 88.8213C5.46834 88.8213 5.28674 88.7265 5.16953 88.537C5.05378 88.3489 4.9959 88.0559 4.9959 87.6579ZM4.9959 90.9006C4.9959 90.523 5.07259 90.2502 5.22597 90.0824C5.37935 89.9145 5.62461 89.8306 5.96176 89.8306H6.29818V90.3645H6.00517C5.82719 90.3645 5.69768 90.4094 5.61665 90.4991C5.53562 90.5903 5.49511 90.7386 5.49511 90.944C5.49511 91.012 5.49872 91.0851 5.50596 91.1633C5.51464 91.2414 5.52549 91.3304 5.53852 91.4302L5.04799 91.4823C5.03062 91.3854 5.0176 91.2899 5.00892 91.1958C5.00024 91.1032 4.9959 91.0048 4.9959 90.9006ZM6.14625 89.8306H8.03456V90.3645H6.14625V89.8306ZM6.85382 89.2684H7.34001V91.3955H6.85382V89.2684ZM4.9959 93.2339C4.9959 92.8389 5.09863 92.5335 5.3041 92.3179C5.51102 92.1023 5.80765 91.9945 6.194 91.9945C6.57021 91.9945 6.8625 92.0857 7.07087 92.268C7.27923 92.4518 7.38342 92.7101 7.38342 93.0429C7.38342 93.3641 7.28791 93.6123 7.09691 93.7874C6.90591 93.9639 6.62882 94.0522 6.26562 94.0522C6.15999 94.0522 6.06088 94.0478 5.96827 94.0391V92.3809H6.35461L6.35461 93.5399C6.5297 93.5399 6.66427 93.4965 6.75832 93.4097C6.85237 93.3229 6.8994 93.2021 6.8994 93.0472C6.8994 92.8779 6.84007 92.7463 6.72142 92.6522C6.60277 92.5581 6.4342 92.5111 6.2157 92.5111C5.97984 92.5111 5.7997 92.5784 5.67525 92.713C5.55226 92.8475 5.49076 93.0385 5.49076 93.286C5.49076 93.3873 5.49583 93.4864 5.50596 93.5833C5.51753 93.6817 5.53273 93.7816 5.55154 93.8829L5.05667 93.9393C5.03062 93.7975 5.01398 93.6673 5.00675 93.5486C4.99951 93.43 4.9959 93.325 4.9959 93.2339ZM5.03931 96.2009H6.67801C6.83718 96.2009 6.91676 96.1496 6.91676 96.0468C6.91676 95.9238 6.82343 95.8623 6.63677 95.8623L7.0535 95.7061V95.8949C7.15045 95.905 7.22931 95.9426 7.29009 96.0078C7.35231 96.0743 7.38342 96.1655 7.38342 96.2812C7.38342 96.4375 7.34073 96.5511 7.25536 96.622C7.16999 96.6943 7.0318 96.7305 6.8408 96.7305H5.03931V96.2009ZM5.03931 94.5687H7.34001V95.0484L6.85382 95.1005H5.03931V94.5687ZM5.03931 95.4434H6.72142C6.85165 95.4434 6.91676 95.3913 6.91676 95.2872C6.91676 95.1627 6.82343 95.1005 6.63677 95.1005L7.0535 94.9659V95.1244C7.27345 95.1504 7.38342 95.2727 7.38342 95.4912C7.38342 95.6069 7.34218 95.6974 7.2597 95.7625C7.17722 95.829 7.05206 95.8623 6.88421 95.8623H5.03931V95.4434Z" fill="#252525"/>
</g>
<g filter="url(#filter1_i_311_50422)">
<rect x="14.1737" y="1.19531" width="12.9036" height="117.805" fill="url(#paint1_linear_311_50422)"/>
<rect x="14.2531" y="1.27469" width="12.7449" height="117.646" stroke="#C8C8C7" stroke-width="0.158754"/>
<path d="M19.213 55.882L22.2951 56.7719V57.4447L19.213 58.3346V57.7812L21.6939 57.1279V57.0888L19.213 56.4355V55.882ZM19.8642 56.3161H20.346V57.8788H19.8642V56.3161ZM20.2027 59.5935L20.9668 59.4589V59.6499C21.3603 59.6745 21.5571 59.8764 21.5571 60.2555C21.5571 60.4812 21.4819 60.6505 21.3314 60.7634C21.1809 60.8763 20.9537 60.9327 20.6499 60.9327V60.3988C20.7989 60.3988 20.906 60.3734 20.9711 60.3228C21.0362 60.2736 21.0688 60.194 21.0688 60.084C21.0688 59.9191 20.9935 59.7961 20.843 59.7151C20.6926 59.634 20.4791 59.5935 20.2027 59.5935ZM19.213 58.5625H19.6775V60.1426H19.213V58.5625ZM19.213 59.0596H21.5137V59.5067L20.8539 59.5935H19.213V59.0596ZM21.0492 58.6494H21.5137V59.4763L21.0492 59.5197V58.6494ZM19.1696 62.7776C19.1696 62.3999 19.2463 62.1272 19.3997 61.9593C19.5531 61.7915 19.7983 61.7076 20.1355 61.7076H20.4719V62.2415H20.1789C20.0009 62.2415 19.8714 62.2863 19.7904 62.3761C19.7093 62.4672 19.6688 62.6155 19.6688 62.821C19.6688 62.889 19.6724 62.9621 19.6797 63.0402C19.6883 63.1184 19.6992 63.2073 19.7122 63.3072L19.2217 63.3593C19.2043 63.2623 19.1913 63.1668 19.1826 63.0728C19.1739 62.9802 19.1696 62.8818 19.1696 62.7776ZM20.32 61.7076H22.2083V62.2415H20.32V61.7076ZM21.0275 61.1454H21.5137V63.2725H21.0275V61.1454Z" fill="#252525"/>
</g>
<g filter="url(#filter2_i_311_50422)">
<rect x="28.3473" y="5.97461" width="12.9036" height="113.026" fill="url(#paint2_linear_311_50422)"/>
<rect x="28.4267" y="6.05399" width="12.7449" height="112.867" stroke="#C8C8C7" stroke-width="0.158754"/>
<path d="M34.5326 43.5023H35.0145V44.0905C35.0145 44.2396 35.0564 44.3553 35.1403 44.4378C35.2243 44.5203 35.3415 44.5615 35.492 44.5615C35.6497 44.5615 35.7712 44.5203 35.8566 44.4378C35.9434 44.3553 35.9868 44.2396 35.9868 44.0905V43.511L36.4687 43.4589V44.0905C36.4687 44.4176 36.3876 44.67 36.2256 44.848C36.0635 45.026 35.8334 45.115 35.5354 45.115C35.2185 45.115 34.9718 45.026 34.7952 44.848C34.6201 44.67 34.5326 44.4176 34.5326 44.0905V43.5023ZM33.3866 43.0096H36.4687V43.5327H33.3866V43.0096ZM33.3866 44.6093L34.8365 43.9842V44.5377L33.3866 45.2279V44.6093ZM33.3649 47.0771L34.0464 47.0359L34.3025 47.0055H34.8104C34.945 47.0055 35.0434 46.9527 35.1056 46.847C35.1693 46.7414 35.204 46.5837 35.2098 46.3739L35.225 45.8009L35.709 45.8443L35.7025 46.3305C35.6967 46.7327 35.6142 47.0315 35.4551 47.2269C35.2973 47.4222 35.0665 47.5199 34.7627 47.5199H33.8684L33.8207 47.8672H33.3866L33.3649 47.0771ZM33.3432 46.2849C33.3432 46.0418 33.4025 45.853 33.5212 45.7184C33.6398 45.5853 33.8077 45.5187 34.0247 45.5187C34.2765 45.5187 34.4697 45.6084 34.6042 45.7878C34.7388 45.9673 34.8061 46.2212 34.8061 46.5497C34.8061 46.6799 34.7988 46.7942 34.7844 46.8926C34.7699 46.991 34.7475 47.0851 34.7171 47.1748L34.3177 47.0793C34.3394 46.9852 34.3517 46.8977 34.3546 46.8166C34.359 46.7356 34.3611 46.651 34.3611 46.5627C34.3611 46.2212 34.2606 46.0505 34.0594 46.0505C33.9712 46.0505 33.9039 46.0801 33.8576 46.1395C33.8113 46.2002 33.7881 46.2878 33.7881 46.4021C33.7881 46.5352 33.812 46.6466 33.8598 46.7363C33.909 46.8261 33.9705 46.8933 34.0442 46.9382C34.1195 46.983 34.1969 47.0055 34.2765 47.0055H34.4632L33.8728 47.1097V46.9252L33.9422 47.0011C33.8091 46.9982 33.6977 46.9671 33.608 46.9078C33.5197 46.8499 33.4532 46.7682 33.4083 46.6625C33.3649 46.5569 33.3432 46.431 33.3432 46.2849ZM33.3866 49.6621H34.7974C34.9363 49.6621 35.0434 49.6303 35.1186 49.5666C35.1939 49.503 35.2315 49.4133 35.2315 49.2975C35.2315 48.9763 35.0188 48.8156 34.5934 48.8156L35.2706 48.6811V48.8677C35.4254 48.8851 35.5404 48.9386 35.6157 49.0284C35.6924 49.1195 35.7307 49.2548 35.7307 49.4342C35.7307 49.6773 35.6569 49.8654 35.5093 49.9986C35.3617 50.1317 35.1534 50.1982 34.8842 50.1982H33.3866V49.6621ZM33.3866 48.2795H35.6873V48.7614L35.2011 48.8156H33.3866V48.2795ZM33.3432 51.6373C33.3432 51.345 33.4445 51.12 33.6471 50.9622C33.8496 50.806 34.1426 50.7278 34.5261 50.7278C34.9153 50.7278 35.2134 50.806 35.4203 50.9622C35.6272 51.12 35.7307 51.3457 35.7307 51.6394C35.7307 51.8087 35.6916 51.9411 35.6135 52.0366C35.5354 52.1321 35.4211 52.1915 35.2706 52.2146V52.4013L34.5673 52.2667C34.796 52.2667 34.9653 52.2255 35.0752 52.143C35.1866 52.0605 35.2423 51.9382 35.2423 51.7762C35.2423 51.6127 35.1809 51.4875 35.0579 51.4007C34.9349 51.3139 34.7576 51.2705 34.5261 51.2705C34.2975 51.2705 34.1246 51.3131 34.0074 51.3985C33.8901 51.4839 33.8315 51.6098 33.8315 51.7762C33.8315 51.9498 33.8865 52.075 33.9965 52.1517C34.1065 52.2284 34.2758 52.2667 34.5044 52.2667L33.8033 52.423V52.2211C33.6528 52.2009 33.5385 52.1401 33.4604 52.0388C33.3823 51.9375 33.3432 51.8037 33.3432 51.6373ZM33.3649 52.3362L33.8185 52.2667H36.6423V52.8028H33.3866L33.3649 52.3362ZM33.3432 54.448C33.3432 54.1225 33.4474 53.8692 33.6557 53.6884C33.8641 53.5089 34.1578 53.4192 34.5369 53.4192C34.9175 53.4192 35.2112 53.5089 35.4182 53.6884C35.6265 53.8692 35.7307 54.1225 35.7307 54.448C35.7307 54.775 35.6265 55.0283 35.4182 55.2077C35.2112 55.3871 34.9175 55.4768 34.5369 55.4768C34.1578 55.4768 33.8641 55.3871 33.6557 55.2077C33.4474 55.0283 33.3432 54.775 33.3432 54.448ZM33.8424 54.448C33.8424 54.6014 33.9024 54.7193 34.0225 54.8018C34.1441 54.8843 34.3156 54.9255 34.5369 54.9255C34.7598 54.9255 34.9312 54.8836 35.0513 54.7996C35.1714 54.7172 35.2315 54.6 35.2315 54.448C35.2315 54.2961 35.1714 54.1782 35.0513 54.0942C34.9312 54.0118 34.7598 53.9705 34.5369 53.9705C34.3156 53.9705 34.1441 54.0118 34.0225 54.0942C33.9024 54.1782 33.8424 54.2961 33.8424 54.448ZM33.3866 57.6039H35.0253C35.1845 57.6039 35.2641 57.5525 35.2641 57.4498C35.2641 57.3268 35.1707 57.2653 34.9841 57.2653L35.4008 57.109V57.2979C35.4977 57.308 35.5766 57.3456 35.6374 57.4107C35.6996 57.4773 35.7307 57.5684 35.7307 57.6842C35.7307 57.8405 35.688 57.9541 35.6026 58.025C35.5173 58.0973 35.3791 58.1335 35.1881 58.1335H33.3866V57.6039ZM33.3866 55.9717H35.6873V56.4514L35.2011 56.5035H33.3866V55.9717ZM33.3866 56.8464H35.0687C35.1989 56.8464 35.2641 56.7943 35.2641 56.6901C35.2641 56.5657 35.1707 56.5035 34.9841 56.5035L35.4008 56.3689V56.5273C35.6207 56.5534 35.7307 56.6756 35.7307 56.8941C35.7307 57.0099 35.6895 57.1003 35.607 57.1655C35.5245 57.232 35.3993 57.2653 35.2315 57.2653H33.3866V56.8464ZM33.3866 61.9991H36.4687V62.5243H33.3866V61.9991ZM35.9868 61.1114H36.4687V63.4121H35.9868V61.1114ZM33.3866 65.2895H34.8191C34.9551 65.2895 35.0593 65.2577 35.1317 65.194C35.2055 65.1304 35.2423 65.0406 35.2423 64.9249C35.2423 64.6037 35.0333 64.443 34.6151 64.443L35.2706 64.3085V64.4951C35.4254 64.5125 35.5404 64.566 35.6157 64.6557C35.6924 64.7469 35.7307 64.8822 35.7307 65.0616C35.7307 65.3047 35.6569 65.4928 35.5093 65.6259C35.3617 65.7591 35.1534 65.8256 34.8842 65.8256H33.3866V65.2895ZM33.3866 63.9069H36.6423V64.443H33.3866V63.9069ZM33.3432 67.4708C33.3432 67.1453 33.4474 66.8921 33.6557 66.7112C33.8641 66.5318 34.1578 66.442 34.5369 66.442C34.9175 66.442 35.2112 66.5318 35.4182 66.7112C35.6265 66.8921 35.7307 67.1453 35.7307 67.4708C35.7307 67.7979 35.6265 68.0511 35.4182 68.2305C35.2112 68.4099 34.9175 68.4997 34.5369 68.4997C34.1578 68.4997 33.8641 68.4099 33.6557 68.2305C33.4474 68.0511 33.3432 67.7979 33.3432 67.4708ZM33.8424 67.4708C33.8424 67.6242 33.9024 67.7422 34.0225 67.8246C34.1441 67.9071 34.3156 67.9484 34.5369 67.9484C34.7598 67.9484 34.9312 67.9064 35.0513 67.8225C35.1714 67.74 35.2315 67.6228 35.2315 67.4708C35.2315 67.3189 35.1714 67.201 35.0513 67.1171C34.9312 67.0346 34.7598 66.9933 34.5369 66.9933C34.3156 66.9933 34.1441 67.0346 34.0225 67.1171C33.9024 67.201 33.8424 67.3189 33.8424 67.4708ZM33.3432 69.7846C33.3432 69.5559 33.4148 69.3794 33.5581 69.255C33.7028 69.1305 33.9061 69.0683 34.168 69.0683H35.6873V69.6044H34.2548C34.1231 69.6044 34.0211 69.6377 33.9487 69.7043C33.8778 69.7708 33.8424 69.8627 33.8424 69.9799C33.8424 70.1304 33.8952 70.2433 34.0008 70.3185C34.1079 70.3952 34.2866 70.4335 34.5369 70.4335L33.8294 70.5507V70.3836C33.6731 70.3474 33.553 70.2765 33.4691 70.1709C33.3851 70.0667 33.3432 69.938 33.3432 69.7846ZM33.3649 70.4726L33.9162 70.4335H34.3199V70.9696H33.8684L33.8207 71.2865H33.3866L33.3649 70.4726ZM34.0377 70.4335H35.6873V70.9696H34.168L34.0377 70.4335ZM32.3491 71.7727L32.8244 71.751L32.8461 72.489C32.8534 72.7031 32.9134 72.8587 33.0263 72.9556C33.1377 73.0526 33.3027 73.1018 33.5212 73.1032H35.2011L35.6873 73.1466V73.6393H33.5906C33.1811 73.6393 32.8794 73.5438 32.6855 73.3528C32.4902 73.1633 32.3853 72.8609 32.3708 72.4456L32.3491 71.7727ZM33.3432 72.4738C33.3432 72.1815 33.4445 71.9565 33.6471 71.7988C33.8496 71.6425 34.1426 71.5644 34.5261 71.5644C34.9153 71.5644 35.2134 71.6425 35.4203 71.7988C35.6272 71.9565 35.7307 72.1822 35.7307 72.476C35.7307 72.6525 35.6916 72.79 35.6135 72.8883C35.5354 72.9882 35.4211 73.0497 35.2706 73.0728V73.2465L34.5673 73.1032C34.796 73.1032 34.9653 73.062 35.0752 72.9795C35.1866 72.897 35.2423 72.7748 35.2423 72.6127C35.2423 72.4492 35.1809 72.324 35.0579 72.2372C34.9349 72.1504 34.7576 72.107 34.5261 72.107C34.2975 72.107 34.1246 72.1497 34.0074 72.235C33.8901 72.3204 33.8315 72.4463 33.8315 72.6127C33.8315 72.7863 33.8865 72.9115 33.9965 72.9882C34.1065 73.0649 34.2758 73.1032 34.5044 73.1032L33.8033 73.2595V73.0576C33.6528 73.0374 33.5385 72.9766 33.4604 72.8753C33.3823 72.774 33.3432 72.6402 33.3432 72.4738ZM33.3866 75.7078H34.8191C34.9551 75.7078 35.0593 75.676 35.1317 75.6123C35.2055 75.5486 35.2423 75.4589 35.2423 75.3431C35.2423 75.0219 35.0333 74.8613 34.6151 74.8613L35.2706 74.7267V74.9134C35.4254 74.9308 35.5404 74.9843 35.6157 75.074C35.6924 75.1652 35.7307 75.3005 35.7307 75.4799C35.7307 75.723 35.6569 75.9111 35.5093 76.0442C35.3617 76.1773 35.1534 76.2439 34.8842 76.2439H33.3866V75.7078ZM33.3866 74.3252H36.6423V74.8613H33.3866V74.3252ZM33.3432 78.3492C33.3432 77.9716 33.4199 77.6988 33.5733 77.531C33.7266 77.3631 33.9719 77.2792 34.309 77.2792H34.6455V77.8131H34.3525C34.1745 77.8131 34.045 77.858 33.9639 77.9477C33.8829 78.0389 33.8424 78.1872 33.8424 78.3927C33.8424 78.4607 33.846 78.5337 33.8532 78.6119C33.8619 78.69 33.8728 78.779 33.8858 78.8788L33.3953 78.9309C33.3779 78.834 33.3649 78.7385 33.3562 78.6444C33.3475 78.5518 33.3432 78.4534 33.3432 78.3492ZM34.4935 77.2792H36.3818V77.8131H34.4935V77.2792ZM35.2011 76.7171H35.6873V78.8441H35.2011V76.7171ZM33.3432 80.3157C33.3432 80.1406 33.349 79.988 33.3606 79.8577C33.3707 79.7275 33.3866 79.611 33.4083 79.5083L33.9119 79.5712C33.8887 79.7405 33.8713 79.8859 33.8598 80.0075C33.8482 80.129 33.8424 80.2318 33.8424 80.3157C33.8424 80.527 33.8598 80.6796 33.8945 80.7737C33.9292 80.8692 33.9842 80.9169 34.0594 80.9169C34.1072 80.9169 34.1441 80.9032 34.1701 80.8757C34.1962 80.8482 34.2172 80.8048 34.2331 80.7455L34.4176 80.0835C34.4682 79.9011 34.5377 79.7651 34.6259 79.6754C34.7156 79.5871 34.8415 79.543 35.0036 79.543C35.2525 79.543 35.4355 79.6436 35.5527 79.8447C35.6714 80.0473 35.7307 80.362 35.7307 80.7889C35.7307 80.893 35.7271 80.9958 35.7199 81.0971C35.7126 81.1998 35.7018 81.3069 35.6873 81.4183L35.2011 81.3619C35.2127 81.236 35.2206 81.1253 35.225 81.0298C35.2293 80.9357 35.2315 80.8511 35.2315 80.7758C35.2315 80.5371 35.2149 80.3634 35.1816 80.2549C35.1483 80.1478 35.0948 80.0943 35.021 80.0943C34.9718 80.0943 34.9356 80.1102 34.9124 80.1421C34.8893 80.1739 34.869 80.2231 34.8517 80.2897L34.7019 80.8453C34.6469 81.0609 34.5695 81.2201 34.4697 81.3228C34.3698 81.427 34.2338 81.4791 34.0616 81.4791C33.8156 81.4791 33.634 81.3843 33.5168 81.1947C33.4011 81.0066 33.3432 80.7136 33.3432 80.3157Z" fill="#252525"/>
</g>
<g filter="url(#filter3_i_311_50422)">
<rect x="42.521" width="14.0984" height="119" fill="url(#paint3_linear_311_50422)"/>
<rect x="42.6004" y="0.0793772" width="13.9396" height="118.841" stroke="#C8C8C7" stroke-width="0.158754"/>
<path d="M48.1577 22.2841H48.6504V22.5597C48.6504 22.8563 48.7351 23.0784 48.9044 23.226C49.0737 23.3751 49.324 23.4496 49.6553 23.4496C50.0171 23.4496 50.2891 23.3751 50.4714 23.226C50.6552 23.0784 50.7471 22.8563 50.7471 22.5597V22.2927L51.2398 22.2406V22.5597C51.2398 23.5147 50.7116 23.9922 49.6553 23.9922C48.6569 23.9922 48.1577 23.5147 48.1577 22.5597V22.2841ZM48.1577 21.7914H51.2398V22.3144H48.1577V21.7914ZM48.136 25.8588L48.8175 25.8176L49.0737 25.7872H49.5815C49.7161 25.7872 49.8145 25.7344 49.8767 25.6287C49.9404 25.5231 49.9751 25.3654 49.9809 25.1556L49.9961 24.5826L50.4801 24.626L50.4736 25.1122C50.4678 25.5144 50.3853 25.8132 50.2262 26.0086C50.0685 26.2039 49.8377 26.3016 49.5338 26.3016H48.6396L48.5918 26.6489H48.1577L48.136 25.8588ZM48.1143 25.0666C48.1143 24.8235 48.1736 24.6347 48.2923 24.5001C48.4109 24.367 48.5788 24.3004 48.7958 24.3004C49.0476 24.3004 49.2408 24.3901 49.3753 24.5696C49.5099 24.749 49.5772 25.0029 49.5772 25.3314C49.5772 25.4616 49.57 25.5759 49.5555 25.6743C49.541 25.7727 49.5186 25.8668 49.4882 25.9565L49.0888 25.861C49.1106 25.7669 49.1229 25.6794 49.1257 25.5984C49.1301 25.5173 49.1323 25.4327 49.1323 25.3444C49.1323 25.0029 49.0317 24.8322 48.8306 24.8322C48.7423 24.8322 48.675 24.8618 48.6287 24.9212C48.5824 24.9819 48.5593 25.0695 48.5593 25.1838C48.5593 25.3169 48.5831 25.4283 48.6309 25.5181C48.6801 25.6078 48.7416 25.6751 48.8154 25.7199C48.8906 25.7648 48.968 25.7872 49.0476 25.7872H49.2343L48.6439 25.8914V25.7069L48.7134 25.7829C48.5802 25.78 48.4688 25.7488 48.3791 25.6895C48.2908 25.6316 48.2243 25.5499 48.1794 25.4443C48.136 25.3386 48.1143 25.2127 48.1143 25.0666ZM48.1143 28.4807C48.1143 28.1031 48.191 27.8303 48.3444 27.6625C48.4978 27.4946 48.743 27.4107 49.0802 27.4107H49.4166V27.9446H49.1236C48.9456 27.9446 48.8161 27.9895 48.7351 28.0792C48.654 28.1704 48.6135 28.3187 48.6135 28.5242C48.6135 28.5922 48.6171 28.6652 48.6244 28.7434C48.633 28.8215 48.6439 28.9105 48.6569 29.0103L48.1664 29.0624C48.149 28.9655 48.136 28.87 48.1273 28.7759C48.1186 28.6833 48.1143 28.5849 48.1143 28.4807ZM49.2647 27.4107H51.153V27.9446H49.2647V27.4107ZM49.9722 26.8486H50.4584V28.9756H49.9722V26.8486ZM48.136 31.0679L48.8175 31.0267L49.0737 30.9963H49.5815C49.7161 30.9963 49.8145 30.9435 49.8767 30.8379C49.9404 30.7322 49.9751 30.5745 49.9809 30.3647L49.9961 29.7917L50.4801 29.8351L50.4736 30.3213C50.4678 30.7236 50.3853 31.0224 50.2262 31.2177C50.0685 31.4131 49.8377 31.5107 49.5338 31.5107H48.6396L48.5918 31.858H48.1577L48.136 31.0679ZM48.1143 30.2757C48.1143 30.0326 48.1736 29.8438 48.2923 29.7092C48.4109 29.5761 48.5788 29.5095 48.7958 29.5095C49.0476 29.5095 49.2408 29.5993 49.3753 29.7787C49.5099 29.9581 49.5772 30.2121 49.5772 30.5405C49.5772 30.6708 49.57 30.7851 49.5555 30.8835C49.541 30.9819 49.5186 31.0759 49.4882 31.1656L49.0888 31.0701C49.1106 30.9761 49.1229 30.8885 49.1257 30.8075C49.1301 30.7265 49.1323 30.6418 49.1323 30.5535C49.1323 30.2121 49.0317 30.0413 48.8306 30.0413C48.7423 30.0413 48.675 30.071 48.6287 30.1303C48.5824 30.1911 48.5593 30.2786 48.5593 30.3929C48.5593 30.5261 48.5831 30.6375 48.6309 30.7272C48.6801 30.8169 48.7416 30.8842 48.8154 30.929C48.8906 30.9739 48.968 30.9963 49.0476 30.9963H49.2343L48.6439 31.1005V30.916L48.7134 30.992C48.5802 30.9891 48.4688 30.958 48.3791 30.8987C48.2908 30.8408 48.2243 30.759 48.1794 30.6534C48.136 30.5478 48.1143 30.4219 48.1143 30.2757ZM48.1143 35.728C48.1143 35.5529 48.1288 35.385 48.1577 35.2244C48.1867 35.0652 48.2286 34.9205 48.2836 34.7903L48.811 34.8598C48.743 35.0189 48.6909 35.1752 48.6548 35.3286C48.62 35.482 48.6027 35.6267 48.6027 35.7627C48.6027 35.9363 48.633 36.0673 48.6938 36.1555C48.756 36.2452 48.8465 36.2901 48.9651 36.2901C49.12 36.2901 49.2379 36.2018 49.3189 36.0253L49.5468 35.5456C49.6481 35.33 49.7733 35.1636 49.9223 35.0464C50.0713 34.9307 50.2428 34.8728 50.4367 34.8728C50.7058 34.8728 50.9142 34.9582 51.0618 35.1289C51.2094 35.3011 51.2832 35.5442 51.2832 35.8582C51.2832 36.055 51.2506 36.2358 51.1855 36.4008C51.1219 36.5672 51.0249 36.7191 50.8947 36.8566L50.4997 36.4985C50.598 36.387 50.6718 36.2785 50.721 36.1729C50.7717 36.0687 50.797 35.9645 50.797 35.8603C50.797 35.7243 50.7659 35.6187 50.7037 35.5435C50.6429 35.4682 50.5539 35.4306 50.4367 35.4306C50.3557 35.4306 50.2841 35.4559 50.2218 35.5066C50.1611 35.5587 50.1061 35.6332 50.0569 35.7301L49.842 36.162C49.732 36.3834 49.6047 36.5527 49.46 36.6699C49.3167 36.7886 49.1511 36.8479 48.963 36.8479C48.6866 36.8479 48.4761 36.7524 48.3314 36.5614C48.1867 36.3719 48.1143 36.094 48.1143 35.728ZM48.1143 38.899C48.1143 38.5213 48.191 38.2486 48.3444 38.0807C48.4978 37.9129 48.743 37.829 49.0802 37.829H49.4166V38.3629H49.1236C48.9456 38.3629 48.8161 38.4078 48.7351 38.4975C48.654 38.5886 48.6135 38.7369 48.6135 38.9424C48.6135 39.0104 48.6171 39.0835 48.6244 39.1616C48.633 39.2398 48.6439 39.3288 48.6569 39.4286L48.1664 39.4807C48.149 39.3837 48.136 39.2882 48.1273 39.1942C48.1186 39.1016 48.1143 39.0032 48.1143 38.899ZM49.2647 37.829H51.153V38.3629H49.2647V37.829ZM49.9722 37.2668H50.4584V39.3939H49.9722V37.2668ZM49.1474 40.9241L49.9115 40.7895V40.9805C50.305 41.0051 50.5018 41.2069 50.5018 41.5861C50.5018 41.8118 50.4266 41.9811 50.2761 42.0939C50.1256 42.2068 49.8984 42.2632 49.5946 42.2632V41.7293C49.7436 41.7293 49.8507 41.704 49.9158 41.6533C49.9809 41.6041 50.0135 41.5246 50.0135 41.4146C50.0135 41.2496 49.9382 41.1266 49.7877 41.0456C49.6373 40.9646 49.4238 40.9241 49.1474 40.9241ZM48.1577 39.8931H48.6222V41.4732H48.1577V39.8931ZM48.1577 40.3901H50.4584V40.8372L49.7986 40.9241H48.1577V40.3901ZM49.9939 39.9799H50.4584V40.8069L49.9939 40.8503V39.9799ZM48.1143 43.3572C48.1143 43.1285 48.1859 42.952 48.3292 42.8276C48.4739 42.7031 48.6772 42.6409 48.9391 42.6409H50.4584V43.177H49.0259C48.8942 43.177 48.7922 43.2103 48.7199 43.2768C48.649 43.3434 48.6135 43.4353 48.6135 43.5525C48.6135 43.703 48.6663 43.8158 48.772 43.8911C48.879 43.9678 49.0577 44.0061 49.3081 44.0061L48.6005 44.1233V43.9562C48.4442 43.92 48.3241 43.8491 48.2402 43.7435C48.1563 43.6393 48.1143 43.5105 48.1143 43.3572ZM48.136 44.0452L48.6873 44.0061H49.091V44.5422H48.6396L48.5918 44.8591H48.1577L48.136 44.0452ZM48.8089 44.0061H50.4584V44.5422H48.9391L48.8089 44.0061ZM48.1143 46.5022C48.1143 46.0941 48.217 45.7787 48.4225 45.5558C48.6294 45.3345 48.9261 45.2238 49.3124 45.2238C49.6886 45.2238 49.9809 45.3265 50.1893 45.532C50.3976 45.7374 50.5018 46.0312 50.5018 46.4132C50.5018 46.6461 50.457 46.8451 50.3673 47.0101C50.279 47.1765 50.1538 47.2944 49.9918 47.3638L49.6814 46.9666C49.7841 46.903 49.863 46.8212 49.918 46.7214C49.9744 46.623 50.0026 46.5145 50.0026 46.3958C50.0026 46.199 49.9447 46.0456 49.829 45.9357C49.7132 45.8257 49.5483 45.7707 49.3341 45.7707C49.0997 45.7707 48.921 45.838 48.798 45.9726C48.675 46.1086 48.6135 46.3025 48.6135 46.5543C48.6135 46.6599 48.6186 46.7648 48.6287 46.869C48.6388 46.9746 48.6526 47.0773 48.6699 47.1772L48.1794 47.2336C48.1534 47.1164 48.136 46.9949 48.1273 46.869C48.1186 46.7431 48.1143 46.6208 48.1143 46.5022ZM48.1143 49.3173C48.1143 48.9396 48.191 48.6669 48.3444 48.499C48.4978 48.3312 48.743 48.2472 49.0802 48.2472H49.4166V48.7812H49.1236C48.9456 48.7812 48.8161 48.826 48.7351 48.9157C48.654 49.0069 48.6135 49.1552 48.6135 49.3607C48.6135 49.4287 48.6171 49.5018 48.6244 49.5799C48.633 49.658 48.6439 49.747 48.6569 49.8469L48.1664 49.899C48.149 49.802 48.136 49.7065 48.1273 49.6125C48.1186 49.5198 48.1143 49.4215 48.1143 49.3173ZM49.2647 48.2472H51.153V48.7812H49.2647V48.2472ZM49.9722 47.6851H50.4584V49.8121H49.9722V47.6851ZM48.1143 51.1709C48.1143 50.9422 48.1859 50.7657 48.3292 50.6413C48.4739 50.5168 48.6772 50.4546 48.9391 50.4546H50.4584V50.9907H49.0259C48.8942 50.9907 48.7922 51.024 48.7199 51.0905C48.649 51.1571 48.6135 51.249 48.6135 51.3662C48.6135 51.5167 48.6663 51.6295 48.772 51.7048C48.879 51.7815 49.0577 51.8198 49.3081 51.8198L48.6005 51.937V51.7699C48.4442 51.7337 48.3241 51.6628 48.2402 51.5572C48.1563 51.453 48.1143 51.3242 48.1143 51.1709ZM48.136 51.8589L48.6873 51.8198H49.091V52.3559H48.6396L48.5918 52.6728H48.1577L48.136 51.8589ZM48.8089 51.8198H50.4584V52.3559H48.9391L48.8089 51.8198ZM49.1474 53.9469L49.9115 53.8123V54.0033C50.305 54.0279 50.5018 54.2298 50.5018 54.6089C50.5018 54.8346 50.4266 55.0039 50.2761 55.1168C50.1256 55.2296 49.8984 55.2861 49.5946 55.2861V54.7521C49.7436 54.7521 49.8507 54.7268 49.9158 54.6762C49.9809 54.627 50.0135 54.5474 50.0135 54.4374C50.0135 54.2725 49.9382 54.1495 49.7877 54.0684C49.6373 53.9874 49.4238 53.9469 49.1474 53.9469ZM48.1577 52.9159H48.6222V54.496H48.1577V52.9159ZM48.1577 53.4129H50.4584V53.8601L49.7986 53.9469H48.1577V53.4129ZM49.9939 53.0027H50.4584V53.8297L49.9939 53.8731V53.0027ZM48.1143 56.8597C48.1143 56.4646 48.217 56.1593 48.4225 55.9437C48.6294 55.7281 48.9261 55.6203 49.3124 55.6203C49.6886 55.6203 49.9809 55.7115 50.1893 55.8938C50.3976 56.0776 50.5018 56.3358 50.5018 56.6687C50.5018 56.9899 50.4063 57.238 50.2153 57.4131C50.0243 57.5897 49.7472 57.6779 49.384 57.6779C49.2784 57.6779 49.1793 57.6736 49.0867 57.6649V56.0067H49.473V57.1657C49.6481 57.1657 49.7827 57.1223 49.8767 57.0355C49.9708 56.9486 50.0178 56.8278 50.0178 56.673C50.0178 56.5037 49.9585 56.372 49.8398 56.278C49.7212 56.1839 49.5526 56.1369 49.3341 56.1369C49.0983 56.1369 48.9181 56.2042 48.7937 56.3387C48.6707 56.4733 48.6092 56.6643 48.6092 56.9117C48.6092 57.013 48.6142 57.1122 48.6244 57.2091C48.6359 57.3075 48.6511 57.4073 48.6699 57.5086L48.1751 57.5651C48.149 57.4233 48.1324 57.293 48.1252 57.1744C48.1179 57.0557 48.1143 56.9508 48.1143 56.8597ZM48.1577 60.6536L51.2398 61.5435V62.2164L48.1577 63.1063V62.5528L50.6386 61.8995V61.8604L48.1577 61.2071V60.6536ZM48.8089 61.0877H49.2907V62.6505H48.8089V61.0877ZM48.1577 64.9078H49.5685C49.7074 64.9078 49.8145 64.8759 49.8898 64.8123C49.965 64.7486 50.0026 64.6589 50.0026 64.5431C50.0026 64.2219 49.7899 64.0613 49.3645 64.0613L50.0417 63.9267V64.1134C50.1965 64.1307 50.3115 64.1843 50.3868 64.274C50.4635 64.3651 50.5018 64.5004 50.5018 64.6799C50.5018 64.923 50.428 65.1111 50.2804 65.2442C50.1328 65.3773 49.9245 65.4439 49.6553 65.4439H48.1577V64.9078ZM48.1577 63.5252H50.4584V64.007L49.9722 64.0613H48.1577V63.5252ZM48.1143 66.8829C48.1143 66.5906 48.2156 66.3656 48.4182 66.2079C48.6207 66.0516 48.9138 65.9735 49.2972 65.9735C49.6865 65.9735 49.9845 66.0516 50.1914 66.2079C50.3984 66.3656 50.5018 66.5913 50.5018 66.8851C50.5018 67.0544 50.4628 67.1868 50.3846 67.2823C50.3065 67.3778 50.1922 67.4371 50.0417 67.4602V67.6469L49.3385 67.5123C49.5671 67.5123 49.7364 67.4711 49.8463 67.3886C49.9578 67.3061 50.0135 67.1839 50.0135 67.0218C50.0135 66.8583 49.952 66.7331 49.829 66.6463C49.706 66.5595 49.5287 66.5161 49.2972 66.5161C49.0686 66.5161 48.8957 66.5588 48.7785 66.6441C48.6613 66.7295 48.6027 66.8554 48.6027 67.0218C48.6027 67.1954 48.6576 67.3206 48.7676 67.3973C48.8776 67.474 49.0469 67.5123 49.2755 67.5123L48.5744 67.6686V67.4667C48.424 67.4465 48.3096 67.3857 48.2315 67.2844C48.1534 67.1831 48.1143 67.0493 48.1143 66.8829ZM48.136 67.5818L48.5896 67.5123H51.4134V68.0484H48.1577L48.136 67.5818ZM48.1577 71.0719L51.2398 71.9618V72.6346L48.1577 73.5245V72.9711L50.6386 72.3178V72.2787L48.1577 71.6254V71.0719ZM48.8089 71.506H49.2907V73.0687H48.8089V71.506ZM48.1143 75.2457C48.1143 74.965 48.191 74.7624 48.3444 74.638C48.4978 74.515 48.743 74.4535 49.0802 74.4535H51.4134V74.9874H49.1019C48.9962 74.9874 48.9094 74.9983 48.8414 75.02C48.7749 75.0417 48.7257 75.0829 48.6938 75.1437C48.662 75.2059 48.6461 75.2978 48.6461 75.4194C48.6461 75.5438 48.6736 75.7015 48.7285 75.8925L48.2055 75.9533C48.1736 75.8332 48.1505 75.7167 48.136 75.6038C48.1215 75.4924 48.1143 75.3731 48.1143 75.2457ZM50.9272 73.7915H51.4134V74.4926H50.9272V73.7915ZM47.1202 76.6001L47.5956 76.5784L47.6173 77.3163C47.6245 77.5305 47.6846 77.6861 47.7974 77.783C47.9088 77.8799 48.0738 77.9291 48.2923 77.9306H49.9722L50.4584 77.974V78.4667H48.3617C47.9522 78.4667 47.6505 78.3712 47.4567 78.1802C47.2613 77.9906 47.1564 77.6882 47.1419 77.2729L47.1202 76.6001ZM48.1143 77.3012C48.1143 77.0089 48.2156 76.7839 48.4182 76.6261C48.6207 76.4699 48.9138 76.3917 49.2972 76.3917C49.6865 76.3917 49.9845 76.4699 50.1914 76.6261C50.3984 76.7839 50.5018 77.0096 50.5018 77.3033C50.5018 77.4799 50.4628 77.6173 50.3846 77.7157C50.3065 77.8156 50.1922 77.8771 50.0417 77.9002V78.0738L49.3385 77.9306C49.5671 77.9306 49.7364 77.8894 49.8463 77.8069C49.9578 77.7244 50.0135 77.6021 50.0135 77.4401C50.0135 77.2766 49.952 77.1514 49.829 77.0646C49.706 76.9778 49.5287 76.9343 49.2972 76.9343C49.0686 76.9343 48.8957 76.977 48.7785 77.0624C48.6613 77.1478 48.6027 77.2737 48.6027 77.4401C48.6027 77.6137 48.6576 77.7389 48.7676 77.8156C48.8776 77.8922 49.0469 77.9306 49.2755 77.9306L48.5744 78.0869V77.885C48.424 77.8648 48.3096 77.804 48.2315 77.7027C48.1534 77.6014 48.1143 77.4676 48.1143 77.3012ZM48.1143 80.1119C48.1143 79.7863 48.2185 79.5331 48.4269 79.3522C48.6352 79.1728 48.929 79.0831 49.3081 79.0831C49.6886 79.0831 49.9824 79.1728 50.1893 79.3522C50.3976 79.5331 50.5018 79.7863 50.5018 80.1119C50.5018 80.4389 50.3976 80.6922 50.1893 80.8716C49.9824 81.051 49.6886 81.1407 49.3081 81.1407C48.929 81.1407 48.6352 81.051 48.4269 80.8716C48.2185 80.6922 48.1143 80.4389 48.1143 80.1119ZM48.6135 80.1119C48.6135 80.2653 48.6736 80.3832 48.7937 80.4657C48.9152 80.5482 49.0867 80.5894 49.3081 80.5894C49.5309 80.5894 49.7024 80.5475 49.8225 80.4635C49.9426 80.3811 50.0026 80.2638 50.0026 80.1119C50.0026 79.96 49.9426 79.8421 49.8225 79.7581C49.7024 79.6756 49.5309 79.6344 49.3081 79.6344C49.0867 79.6344 48.9152 79.6756 48.7937 79.7581C48.6736 79.8421 48.6135 79.96 48.6135 80.1119ZM49.1474 82.5971L49.9115 82.4625V82.6535C50.305 82.6781 50.5018 82.88 50.5018 83.2591C50.5018 83.4848 50.4266 83.6541 50.2761 83.767C50.1256 83.8799 49.8984 83.9363 49.5946 83.9363V83.4023C49.7436 83.4023 49.8507 83.377 49.9158 83.3264C49.9809 83.2772 50.0135 83.1976 50.0135 83.0876C50.0135 82.9227 49.9382 82.7997 49.7877 82.7186C49.6373 82.6376 49.4238 82.5971 49.1474 82.5971ZM48.1577 81.5661H48.6222L48.6222 83.1462H48.1577L48.1577 81.5661ZM48.1577 82.0632H50.4584V82.5103L49.7986 82.5971H48.1577V82.0632ZM49.9939 81.6529H50.4584V82.4799L49.9939 82.5233V81.6529ZM48.1577 85.206H50.3282V85.7399H48.1577V85.206ZM48.1577 84.3443H48.6439V85.2494H48.1577V84.3443ZM48.1577 85.6965H48.6439V86.4323H48.1577V85.6965ZM49.9722 84.4746H50.4584V85.7399H49.9722V84.4746ZM50.7905 85.4513C50.7905 85.3485 50.8238 85.2639 50.8903 85.1973C50.9569 85.1308 51.0415 85.0975 51.1443 85.0975C51.247 85.0975 51.3317 85.1308 51.3982 85.1973C51.4648 85.2639 51.4981 85.3485 51.4981 85.4513C51.4981 85.554 51.4648 85.6387 51.3982 85.7052C51.3317 85.7718 51.247 85.8051 51.1443 85.8051C51.0415 85.8051 50.9569 85.7718 50.8903 85.7052C50.8238 85.6387 50.7905 85.554 50.7905 85.4513ZM48.1143 88.3858C48.1143 88.0081 48.191 87.7353 48.3444 87.5675C48.4978 87.3996 48.743 87.3157 49.0802 87.3157H49.4166V87.8496H49.1236C48.9456 87.8496 48.8161 87.8945 48.7351 87.9842C48.654 88.0754 48.6135 88.2237 48.6135 88.4292C48.6135 88.4972 48.6171 88.5702 48.6244 88.6484C48.633 88.7265 48.6439 88.8155 48.6569 88.9153L48.1664 88.9674C48.149 88.8705 48.136 88.775 48.1273 88.6809C48.1186 88.5883 48.1143 88.4899 48.1143 88.3858ZM49.2647 87.3157H51.153V87.8496H49.2647V87.3157ZM49.9722 86.7536H50.4584V88.8806H49.9722V86.7536ZM48.1577 90.9534H49.5902C49.7262 90.9534 49.8304 90.9216 49.9028 90.8579C49.9766 90.7942 50.0135 90.7045 50.0135 90.5888C50.0135 90.2675 49.8044 90.1069 49.3862 90.1069L50.0417 89.9724V90.159C50.1965 90.1764 50.3115 90.2299 50.3868 90.3196C50.4635 90.4108 50.5018 90.5461 50.5018 90.7255C50.5018 90.9686 50.428 91.1567 50.2804 91.2898C50.1328 91.423 49.9245 91.4895 49.6553 91.4895H48.1577V90.9534ZM48.1577 89.5708H51.4134V90.1069H48.1577V89.5708ZM48.1577 93.686H49.7964C49.9556 93.686 50.0352 93.6347 50.0352 93.5319C50.0352 93.4089 49.9418 93.3474 49.7552 93.3474L50.1719 93.1912V93.38C50.2689 93.3901 50.3477 93.4278 50.4085 93.4929C50.4707 93.5594 50.5018 93.6506 50.5018 93.7663C50.5018 93.9226 50.4591 94.0362 50.3738 94.1071C50.2884 94.1795 50.1502 94.2156 49.9592 94.2156H48.1577V93.686ZM48.1577 92.0538H50.4584V92.5335L49.9722 92.5856H48.1577V92.0538ZM48.1577 92.9285H49.8398C49.9701 92.9285 50.0352 92.8765 50.0352 92.7723C50.0352 92.6478 49.9418 92.5856 49.7552 92.5856L50.1719 92.451V92.6095C50.3919 92.6355 50.5018 92.7578 50.5018 92.9763C50.5018 93.0921 50.4606 93.1825 50.3781 93.2476C50.2956 93.3142 50.1705 93.3474 50.0026 93.3474H48.1577V92.9285ZM48.1143 95.5613C48.1143 95.3862 48.1201 95.2336 48.1317 95.1034C48.1418 94.9731 48.1577 94.8567 48.1794 94.7539L48.683 94.8169C48.6598 94.9862 48.6425 95.1316 48.6309 95.2531C48.6193 95.3747 48.6135 95.4774 48.6135 95.5613C48.6135 95.7726 48.6309 95.9252 48.6656 96.0193C48.7003 96.1148 48.7553 96.1626 48.8306 96.1626C48.8783 96.1626 48.9152 96.1488 48.9413 96.1213C48.9673 96.0938 48.9883 96.0504 49.0042 95.9911L49.1887 95.3291C49.2393 95.1468 49.3088 95.0108 49.3971 94.921C49.4868 94.8328 49.6127 94.7886 49.7747 94.7886C50.0236 94.7886 50.2066 94.8892 50.3238 95.0903C50.4425 95.2929 50.5018 95.6076 50.5018 96.0345C50.5018 96.1387 50.4982 96.2414 50.491 96.3427C50.4837 96.4454 50.4729 96.5525 50.4584 96.6639L49.9722 96.6075C49.9838 96.4816 49.9918 96.3709 49.9961 96.2754C50.0004 96.1814 50.0026 96.0967 50.0026 96.0215C50.0026 95.7827 49.986 95.6091 49.9527 95.5006C49.9194 95.3935 49.8659 95.3399 49.7921 95.3399C49.7429 95.3399 49.7067 95.3559 49.6836 95.3877C49.6604 95.4195 49.6401 95.4687 49.6228 95.5353L49.473 96.0909C49.418 96.3065 49.3406 96.4657 49.2408 96.5684C49.1409 96.6726 49.0049 96.7247 48.8327 96.7247C48.5867 96.7247 48.4051 96.6299 48.2879 96.4404C48.1722 96.2523 48.1143 95.9593 48.1143 95.5613Z" fill="#252525"/>
</g>
<g filter="url(#filter4_i_311_50422)">
<rect x="71.3083" y="21.7246" width="12.9036" height="96.4187" transform="rotate(8 71.3083 21.7246)" fill="url(#paint4_linear_311_50422)"/>
<rect x="71.3759" y="21.8143" width="12.7449" height="96.2599" transform="rotate(8 71.3759 21.8143)" stroke="#C8C8C7" stroke-width="0.158754"/>
<path d="M72.2736 50.7542C72.409 49.7913 73.0011 49.3836 74.05 49.531C74.5472 49.6009 74.9149 49.776 75.1531 50.0564C75.3926 50.3385 75.4812 50.7009 75.4189 51.1437C75.3901 51.3486 75.3318 51.5245 75.2439 51.6714C75.1561 51.8183 75.0458 51.9219 74.9131 51.9822L74.5817 51.6112C74.6782 51.559 74.7571 51.4861 74.8185 51.3924C74.8797 51.3002 74.9184 51.1961 74.9347 51.08C74.971 50.8221 74.9077 50.602 74.7448 50.4199C74.5833 50.2379 74.3335 50.1232 73.9953 50.0757C73.2545 49.9715 72.8384 50.2447 72.747 50.8953C72.7178 51.1031 72.732 51.314 72.7895 51.5281L72.3092 51.5614C72.2468 51.2984 72.235 51.0294 72.2736 50.7542ZM71.9559 53.0154C72.0012 52.693 72.1396 52.4567 72.3711 52.3066C72.6024 52.1579 72.9058 52.1099 73.2812 52.1627C73.658 52.2157 73.9364 52.3454 74.1164 52.5519C74.2975 52.76 74.3655 53.0252 74.3201 53.3476C74.2746 53.6715 74.1362 53.9077 73.9049 54.0564C73.675 54.2053 73.3717 54.2532 72.9948 54.2003C72.6194 54.1475 72.341 54.0178 72.1596 53.8111C71.9783 53.6044 71.9103 53.3392 71.9559 53.0154ZM72.4502 53.0848C72.4289 53.2367 72.4719 53.3619 72.5794 53.4602C72.6883 53.5588 72.8523 53.6235 73.0715 53.6544C73.2922 53.6854 73.4679 53.6677 73.5985 53.6013C73.7289 53.5363 73.8046 53.4286 73.8258 53.2782C73.8469 53.1277 73.8039 53.0026 73.6966 52.9027C73.5892 52.8044 73.4251 52.7397 73.2045 52.7086C72.9852 52.6778 72.8097 52.6948 72.6778 52.7596C72.5472 52.826 72.4714 52.9344 72.4502 53.0848ZM71.5596 56.1465L73.1824 56.3746C73.34 56.3968 73.426 56.357 73.4403 56.2552C73.4574 56.1334 73.3735 56.0596 73.1887 56.0336L73.6231 55.9368L73.5968 56.1238C73.6914 56.1473 73.7643 56.1956 73.8154 56.2685C73.8677 56.3431 73.8859 56.4377 73.8698 56.5523C73.848 56.7071 73.7899 56.8136 73.6955 56.8719C73.6009 56.9317 73.459 56.9483 73.2699 56.9217L71.4859 56.671L71.5596 56.1465ZM71.7868 54.5302L74.0651 54.8504L73.9983 55.3254L73.5096 55.3094L71.7128 55.0568L71.7868 54.5302ZM71.6651 55.3964L73.3308 55.6305C73.4598 55.6487 73.5315 55.6061 73.546 55.503C73.5633 55.3797 73.4796 55.3051 73.2947 55.2792L73.7261 55.2039L73.7041 55.3608C73.9182 55.4172 74.0101 55.5536 73.9797 55.7699C73.9636 55.8846 73.9102 55.9684 73.8194 56.0214C73.7285 56.0758 73.5999 56.0914 73.4337 56.068L71.6068 55.8113L71.6651 55.3964ZM70.4187 57.0909L73.6857 57.55L73.6171 58.0379L73.1296 58.0132L70.3441 57.6218L70.4187 57.0909ZM71.2022 58.378C71.2254 58.2132 71.2827 58.0861 71.3741 57.9967C71.4656 57.9072 71.5873 57.863 71.7391 57.8638L71.7672 57.664L72.4397 57.9163C72.2133 57.8845 72.0403 57.8989 71.9207 57.9595C71.801 58.0216 71.7291 58.1379 71.7051 58.3084C71.682 58.4732 71.7225 58.606 71.8267 58.7068C71.9309 58.8077 72.0961 58.874 72.3225 58.9058C72.5518 58.9381 72.7334 58.9198 72.8673 58.8509C73.0011 58.782 73.0795 58.6667 73.1022 58.5047C73.1248 58.3442 73.0866 58.2154 72.9878 58.1182C72.8903 58.0213 72.7284 57.9569 72.502 57.925L73.2184 57.8811L73.1942 58.053C73.3398 58.0983 73.4444 58.1751 73.5081 58.2834C73.5718 58.3917 73.5913 58.5333 73.5668 58.7081C73.5259 58.999 73.3921 59.2074 73.1655 59.3334C72.9386 59.4607 72.6325 59.4974 72.247 59.4432C71.8673 59.3898 71.5881 59.2709 71.4095 59.0866C71.2306 58.9036 71.1615 58.6674 71.2022 58.378ZM70.9089 60.465C70.9407 60.2386 71.0362 60.0738 71.1954 59.9705C71.356 59.8674 71.566 59.834 71.8253 59.8705L73.3299 60.0819L73.2553 60.6128L71.8367 60.4135C71.7063 60.3951 71.6006 60.4139 71.5197 60.4697C71.4403 60.5258 71.3924 60.6118 71.376 60.7279C71.3551 60.8769 71.3917 60.9961 71.4858 61.0853C71.5812 61.1761 71.7528 61.239 72.0007 61.2738L71.2837 61.2914L71.307 61.1259C71.1572 61.0683 71.0482 60.9814 70.9798 60.8651C70.9112 60.7503 70.8875 60.6169 70.9089 60.465ZM70.8346 61.1494L71.386 61.1874L71.7858 61.2436L71.7112 61.7745L71.2641 61.7116L71.1727 62.0188L70.7428 61.9584L70.8346 61.1494ZM71.5064 61.2043L73.1399 61.4339L73.0652 61.9648L71.5607 61.7533L71.5064 61.2043ZM70.4419 63.7879C70.4944 63.4139 70.6083 63.1545 70.7836 63.0096C70.9588 62.8647 71.2134 62.8158 71.5473 62.8627L71.8804 62.9095L71.8061 63.4382L71.5159 63.3975C71.3397 63.3727 71.2052 63.3991 71.1125 63.4767C71.0195 63.5556 70.9588 63.6969 70.9302 63.9004C70.9207 63.9677 70.9141 64.0406 70.9104 64.1189C70.9082 64.1975 70.9065 64.2872 70.9055 64.3878L70.4125 64.3712C70.4088 64.2727 70.4092 64.1764 70.4137 64.082C70.418 63.9891 70.4274 63.8911 70.4419 63.7879ZM71.73 62.8884L73.5999 63.1512L73.5256 63.6799L71.6556 63.4171L71.73 62.8884ZM72.5089 62.4302L72.9903 62.4978L72.6943 64.6042L72.2129 64.5365L72.5089 62.4302ZM70.1172 66.0984C70.1721 65.7073 70.3164 65.4192 70.5498 65.2343C70.7847 65.0496 71.0935 64.9841 71.4761 65.0379C71.8486 65.0903 72.1254 65.2212 72.3064 65.4308C72.4871 65.6417 72.5543 65.912 72.508 66.2416C72.4633 66.5597 72.3342 66.7921 72.1207 66.9389C71.907 67.0872 71.6203 67.136 71.2606 67.0855C71.156 67.0708 71.0585 67.0527 70.968 67.0312L71.1988 65.3891L71.5814 65.4428L71.4201 66.5906C71.5934 66.615 71.7327 66.5907 71.838 66.5178C71.9432 66.4449 72.0066 66.3318 72.0281 66.1785C72.0517 66.0109 72.0112 65.8722 71.9068 65.7626C71.8024 65.6529 71.642 65.5829 71.4257 65.5525C71.1921 65.5196 71.0044 65.5612 70.8624 65.6771C70.7219 65.7933 70.6344 65.9739 70.6 66.2189C70.5859 66.3192 70.5771 66.4181 70.5736 66.5155C70.5714 66.6145 70.5725 66.7155 70.5771 66.8184L70.0792 66.8054C70.0731 66.6614 70.0748 66.5301 70.0841 66.4116C70.0934 66.2931 70.1045 66.1887 70.1172 66.0984ZM70.8207 68.5162L71.596 68.4893L71.5694 68.6784C71.9557 68.7576 72.1225 68.9849 72.0697 69.3603C72.0383 69.5838 71.9402 69.741 71.7755 69.8318C71.6108 69.9226 71.3779 69.9469 71.077 69.9046L71.1514 69.3759C71.2989 69.3966 71.4085 69.3864 71.48 69.3453C71.5514 69.3057 71.5947 69.2314 71.61 69.1225C71.6329 68.9592 71.5755 68.8269 71.4378 68.7257C71.3001 68.6245 71.0943 68.5547 70.8207 68.5162ZM69.984 67.3576L70.444 67.4222L70.2241 68.9869L69.7641 68.9223L69.984 67.3576ZM69.9149 67.8498L72.1932 68.1699L72.1309 68.6127L71.4655 68.6069L69.8405 68.3785L69.9149 67.8498ZM71.7903 67.6991L72.2503 67.7637L72.1352 68.5826L71.6692 68.561L71.7903 67.6991ZM69.0708 73.5438C69.0951 73.3704 69.1328 73.2062 69.1838 73.0512C69.2347 72.8976 69.2963 72.7601 69.3689 72.6388L69.8815 72.781C69.7921 72.9292 69.7187 73.0767 69.6615 73.2235C69.6058 73.3706 69.5685 73.5114 69.5496 73.6461C69.5254 73.8181 69.5373 73.952 69.5851 74.0479C69.6343 74.1454 69.7176 74.2024 69.8351 74.2189C69.9884 74.2404 70.1175 74.1694 70.2223 74.0059L70.5147 73.5626C70.645 73.3632 70.7921 73.2158 70.956 73.1205C71.1197 73.0266 71.2976 72.9932 71.4896 73.0202C71.7561 73.0576 71.9506 73.1711 72.073 73.3608C72.1952 73.5518 72.2344 73.8028 72.1907 74.1138C72.1633 74.3086 72.1059 74.4832 72.0185 74.6375C71.9323 74.7934 71.8151 74.9304 71.667 75.0484L71.3257 74.6388C71.4386 74.5421 71.5268 74.4449 71.5902 74.3472C71.6549 74.2511 71.6944 74.1514 71.7089 74.0482C71.7279 73.9136 71.7118 73.8046 71.6606 73.7215C71.6109 73.6385 71.528 73.5888 71.412 73.5725C71.3317 73.5613 71.2573 73.5764 71.1886 73.6179C71.1212 73.661 71.0564 73.7271 70.9941 73.8163L70.7212 74.2141C70.5815 74.418 70.4319 74.568 70.2723 74.6639C70.1139 74.7614 69.9416 74.7971 69.7553 74.771C69.4816 74.7325 69.2864 74.6086 69.1697 74.3993C69.0528 74.1915 69.0198 73.9063 69.0708 73.5438ZM68.6588 76.4755C68.7155 76.0714 68.8612 75.7733 69.0957 75.5813C69.3314 75.3908 69.6405 75.3225 70.0231 75.3763C70.3957 75.4286 70.6708 75.571 70.8486 75.8035C71.0263 76.036 71.0886 76.3414 71.0354 76.7196C71.003 76.9503 70.9309 77.1411 70.8191 77.292C70.7085 77.4445 70.5682 77.5439 70.398 77.5901L70.1459 77.1535C70.2565 77.1048 70.346 77.0348 70.4144 76.9436C70.4839 76.854 70.527 76.7505 70.5435 76.633C70.5709 76.4381 70.5349 76.2782 70.4356 76.1531C70.3363 76.0281 70.1806 75.9507 69.9685 75.9209C69.7364 75.8883 69.55 75.9301 69.4095 76.0462C69.2688 76.1638 69.1809 76.3472 69.1459 76.5966C69.1312 76.7012 69.1216 76.8057 69.1171 76.9103C69.1124 77.0163 69.1117 77.12 69.115 77.2213L68.6214 77.2089C68.612 77.0892 68.6117 76.9664 68.6206 76.8405C68.6295 76.7147 68.6422 76.593 68.6588 76.4755ZM68.39 78.6997L70.5394 79.0017L70.465 79.5305L68.3157 79.2284L68.39 78.6997ZM68.5099 77.8464L68.9914 77.914L68.8654 78.8103L68.384 78.7426L68.5099 77.8464ZM68.3217 79.1854L68.8032 79.2531L68.7008 79.9817L68.2193 79.914L68.3217 79.1854ZM70.2887 78.2279L70.7701 78.2955L70.594 79.5486L70.1125 79.4809L70.2887 78.2279ZM70.963 79.3089C70.9773 79.2072 71.0221 79.128 71.0972 79.0714C71.1724 79.0147 71.2609 78.9935 71.3626 79.0078C71.4643 79.0221 71.5435 79.0669 71.6002 79.1421C71.6568 79.2172 71.678 79.3057 71.6637 79.4074C71.6494 79.5092 71.6047 79.5884 71.5295 79.645C71.4543 79.7017 71.3659 79.7228 71.2641 79.7085C71.1624 79.6942 71.0832 79.6495 71.0266 79.5743C70.9699 79.4991 70.9487 79.4107 70.963 79.3089ZM67.9422 81.5737C67.9972 81.1826 68.1414 80.8945 68.3749 80.7096C68.6098 80.5249 68.9186 80.4594 69.3012 80.5132C69.6737 80.5656 69.9505 80.6965 70.1314 80.9061C70.3122 81.117 70.3794 81.3873 70.3331 81.7169C70.2884 82.035 70.1593 82.2674 69.9458 82.4142C69.7321 82.5625 69.4454 82.6113 69.0857 82.5608C68.9811 82.5461 68.8836 82.528 68.7931 82.5065L69.0239 80.8644L69.4064 80.9181L69.2451 82.0659C69.4185 82.0903 69.5578 82.066 69.663 81.9931C69.7683 81.9202 69.8317 81.8071 69.8532 81.6538C69.8768 81.4862 69.8363 81.3475 69.7319 81.2379C69.6275 81.1282 69.4671 81.0582 69.2508 81.0278C69.0172 80.995 68.8294 81.0365 68.6875 81.1524C68.547 81.2686 68.4595 81.4492 68.425 81.6942C68.4109 81.7945 68.4022 81.8934 68.3987 81.9908C68.3965 82.0898 68.3976 82.1908 68.4022 82.2937L67.9043 82.2807C67.8982 82.1367 67.8998 82.0054 67.9092 81.8869C67.9185 81.7684 67.9296 81.664 67.9422 81.5737ZM67.5901 84.3911L68.9872 84.5875C69.1248 84.6068 69.2352 84.5902 69.3186 84.5376C69.402 84.485 69.4517 84.4014 69.4678 84.2868C69.5125 83.9687 69.3242 83.78 68.903 83.7208L69.5923 83.6818L69.5663 83.8667C69.7172 83.9054 69.8237 83.9744 69.8857 84.0738C69.949 84.1747 69.9681 84.314 69.9431 84.4917C69.9093 84.7324 69.81 84.9084 69.6454 85.0197C69.4807 85.131 69.2651 85.1679 68.9986 85.1305L67.5155 84.922L67.5901 84.3911ZM67.7825 83.022L70.0608 83.3422L69.9938 83.8194L69.5048 83.8054L67.7079 83.5529L67.7825 83.022ZM67.2088 86.7924C67.2656 86.3883 67.4112 86.0902 67.6457 85.8981C67.8814 85.7077 68.1906 85.6394 68.5732 85.6931C68.9457 85.7455 69.2209 85.8879 69.3986 86.1204C69.5764 86.3529 69.6386 86.6582 69.5855 87.0365C69.5531 87.2672 69.4809 87.458 69.3692 87.6089C69.2586 87.7614 69.1182 87.8607 68.9481 87.9069L68.696 87.4704C68.8066 87.4217 68.8961 87.3517 68.9644 87.2605C69.034 87.1709 69.077 87.0673 69.0935 86.9499C69.1209 86.755 69.085 86.595 68.9856 86.47C68.8863 86.345 68.7306 86.2676 68.5185 86.2378C68.2864 86.2052 68.1001 86.2469 67.9596 86.3631C67.8188 86.4807 67.731 86.6641 67.6959 86.9134C67.6812 87.018 67.6716 87.1226 67.6672 87.2272C67.6625 87.3332 67.6618 87.4369 67.6651 87.5381L67.1715 87.5258C67.162 87.4061 67.1617 87.2833 67.1707 87.1574C67.1796 87.0315 67.1923 86.9099 67.2088 86.7924ZM66.8548 89.3114C66.9098 88.9202 67.054 88.6322 67.2875 88.4473C67.5224 88.2626 67.8311 88.1971 68.2137 88.2509C68.5863 88.3032 68.863 88.4342 69.044 88.6437C69.2247 88.8547 69.292 89.125 69.2457 89.4545C69.2009 89.7726 69.0718 90.0051 68.8583 90.1519C68.6446 90.3001 68.3579 90.349 67.9983 90.2984C67.8937 90.2837 67.7961 90.2656 67.7056 90.2441L67.9364 88.602L68.319 88.6558L68.1577 89.8036C68.3311 89.8279 68.4704 89.8037 68.5756 89.7308C68.6808 89.6579 68.7442 89.5448 68.7657 89.3915C68.7893 89.2238 68.7489 89.0852 68.6445 88.9755C68.5401 88.8659 68.3797 88.7958 68.1633 88.7654C67.9297 88.7326 67.742 88.7742 67.6 88.8901C67.4595 89.0062 67.372 89.1868 67.3376 89.4319C67.3235 89.5322 67.3147 89.631 67.3112 89.7284C67.309 89.8275 67.3102 89.9285 67.3147 90.0314L66.8168 90.0184C66.8107 89.8743 66.8124 89.7431 66.8217 89.6246C66.8311 89.5061 66.8421 89.4017 66.8548 89.3114Z" fill="#252525"/>
</g>
<g filter="url(#filter5_i_311_50422)">
<rect x="85.3563" y="5.97461" width="12.9036" height="113.026" fill="url(#paint5_linear_311_50422)"/>
<rect x="85.4357" y="6.05399" width="12.7449" height="112.867" stroke="#C8C8C7" stroke-width="0.158754"/>
<path d="M90.3522 52.1647C90.3522 51.1923 90.8818 50.7061 91.941 50.7061C92.4431 50.7061 92.8316 50.8284 93.1065 51.0729C93.3829 51.3189 93.5211 51.6655 93.5211 52.1126C93.5211 52.3195 93.4878 52.5018 93.4213 52.6596C93.3547 52.8173 93.2599 52.9352 93.1369 53.0133L92.7571 52.6921C92.8454 52.627 92.9134 52.5438 92.9611 52.4425C93.0089 52.3427 93.0328 52.2341 93.0328 52.1169C93.0328 51.8565 92.9394 51.6474 92.7528 51.4897C92.5675 51.3319 92.3042 51.2531 91.9627 51.2531C91.2146 51.2531 90.8406 51.5816 90.8406 52.2385C90.8406 52.4483 90.884 52.6552 90.9708 52.8592L90.4998 52.9591C90.4014 52.7073 90.3522 52.4425 90.3522 52.1647ZM90.3956 54.8713H91.8281C91.9642 54.8713 92.0683 54.8394 92.1407 54.7758C92.2145 54.7121 92.2514 54.6224 92.2514 54.5066C92.2514 54.1854 92.0423 54.0248 91.6241 54.0248L92.2796 53.8902V54.0769C92.4344 54.0942 92.5495 54.1478 92.6247 54.2375C92.7014 54.3286 92.7397 54.4639 92.7397 54.6434C92.7397 54.8865 92.6659 55.0746 92.5184 55.2077C92.3708 55.3408 92.1624 55.4074 91.8933 55.4074H90.3956V54.8713ZM90.3956 53.4887H93.6513V54.0248H90.3956V53.4887ZM90.3522 57.2414C90.3522 56.8464 90.455 56.5411 90.6604 56.3255C90.8673 56.1099 91.164 56.0021 91.5503 56.0021C91.9265 56.0021 92.2188 56.0932 92.4272 56.2756C92.6356 56.4593 92.7397 56.7176 92.7397 57.0504C92.7397 57.3716 92.6442 57.6198 92.4532 57.7949C92.2622 57.9714 91.9851 58.0597 91.6219 58.0597C91.5163 58.0597 91.4172 58.0553 91.3246 58.0467V56.3884H91.7109V57.5475C91.886 57.5475 92.0206 57.504 92.1146 57.4172C92.2087 57.3304 92.2557 57.2096 92.2557 57.0548C92.2557 56.8855 92.1964 56.7538 92.0777 56.6597C91.9591 56.5657 91.7905 56.5187 91.572 56.5187C91.3362 56.5187 91.156 56.5859 91.0316 56.7205C90.9086 56.8551 90.8471 57.0461 90.8471 57.2935C90.8471 57.3948 90.8522 57.4939 90.8623 57.5909C90.8739 57.6893 90.8891 57.7891 90.9079 57.8904L90.413 57.9468C90.3869 57.805 90.3703 57.6748 90.3631 57.5561C90.3558 57.4375 90.3522 57.3326 90.3522 57.2414ZM90.3956 60.2085H92.0343C92.1935 60.2085 92.2731 60.1571 92.2731 60.0543C92.2731 59.9314 92.1798 59.8699 91.9931 59.8699L92.4098 59.7136V59.9024C92.5068 59.9125 92.5856 59.9502 92.6464 60.0153C92.7086 60.0818 92.7397 60.173 92.7397 60.2888C92.7397 60.445 92.6971 60.5586 92.6117 60.6295C92.5263 60.7019 92.3881 60.738 92.1971 60.738H90.3956V60.2085ZM90.3956 58.5763H92.6963V59.0559L92.2101 59.108H90.3956V58.5763ZM90.3956 59.451H92.0777C92.208 59.451 92.2731 59.3989 92.2731 59.2947C92.2731 59.1702 92.1798 59.108 91.9931 59.108L92.4098 58.9735V59.1319C92.6298 59.1579 92.7397 59.2802 92.7397 59.4987C92.7397 59.6145 92.6985 59.7049 92.616 59.77C92.5335 59.8366 92.4084 59.8699 92.2405 59.8699H90.3956V59.451ZM90.3956 62.1467H92.5661V62.6806H90.3956V62.1467ZM90.3956 61.285H90.8818V62.1901H90.3956V61.285ZM90.3956 62.6372H90.8818V63.373H90.3956V62.6372ZM92.2101 61.4152H92.6963V62.6806H92.2101V61.4152ZM93.0284 62.3919C93.0284 62.2892 93.0617 62.2046 93.1283 62.138C93.1948 62.0714 93.2795 62.0382 93.3822 62.0382C93.4849 62.0382 93.5696 62.0714 93.6361 62.138C93.7027 62.2046 93.736 62.2892 93.736 62.3919C93.736 62.4947 93.7027 62.5793 93.6361 62.6459C93.5696 62.7125 93.4849 62.7457 93.3822 62.7457C93.2795 62.7457 93.1948 62.7125 93.1283 62.6459C93.0617 62.5793 93.0284 62.4947 93.0284 62.3919ZM90.3522 64.6883C90.3522 64.5132 90.358 64.3606 90.3696 64.2303C90.3797 64.1001 90.3956 63.9836 90.4173 63.8809L90.9209 63.9438C90.8977 64.1131 90.8804 64.2586 90.8688 64.3801C90.8572 64.5016 90.8514 64.6044 90.8514 64.6883C90.8514 64.8996 90.8688 65.0522 90.9035 65.1463C90.9382 65.2418 90.9932 65.2895 91.0685 65.2895C91.1162 65.2895 91.1531 65.2758 91.1792 65.2483C91.2052 65.2208 91.2262 65.1774 91.2421 65.1181L91.4266 64.4561C91.4772 64.2737 91.5467 64.1377 91.635 64.048C91.7247 63.9598 91.8506 63.9156 92.0126 63.9156C92.2615 63.9156 92.4446 64.0162 92.5618 64.2173C92.6804 64.4199 92.7397 64.7346 92.7397 65.1615C92.7397 65.2657 92.7361 65.3684 92.7289 65.4697C92.7217 65.5724 92.7108 65.6795 92.6963 65.7909L92.2101 65.7345C92.2217 65.6086 92.2297 65.4979 92.234 65.4024C92.2384 65.3083 92.2405 65.2237 92.2405 65.1484C92.2405 64.9097 92.2239 64.7361 92.1906 64.6275C92.1573 64.5205 92.1038 64.4669 92.03 64.4669C91.9808 64.4669 91.9446 64.4828 91.9215 64.5147C91.8983 64.5465 91.8781 64.5957 91.8607 64.6623L91.7109 65.2179C91.656 65.4335 91.5785 65.5927 91.4787 65.6954C91.3789 65.7996 91.2428 65.8517 91.0706 65.8517C90.8247 65.8517 90.6431 65.7569 90.5259 65.5673C90.4101 65.3792 90.3522 65.0862 90.3522 64.6883ZM90.3522 67.931C90.3522 67.5533 90.4289 67.2806 90.5823 67.1127C90.7357 66.9449 90.9809 66.8609 91.3181 66.8609H91.6545V67.3949H91.3615C91.1835 67.3949 91.054 67.4397 90.973 67.5295C90.8919 67.6206 90.8514 67.7689 90.8514 67.9744C90.8514 68.0424 90.855 68.1155 90.8623 68.1936C90.871 68.2718 90.8818 68.3607 90.8948 68.4606L90.4043 68.5127C90.3869 68.4157 90.3739 68.3202 90.3652 68.2262C90.3566 68.1336 90.3522 68.0352 90.3522 67.931ZM91.5026 66.8609H93.3909V67.3949H91.5026V66.8609ZM92.2101 66.2988H92.6963V68.4259H92.2101V66.2988ZM91.3854 69.956L92.1494 69.8215V70.0125C92.5429 70.0371 92.7397 70.2389 92.7397 70.618C92.7397 70.8438 92.6645 71.0131 92.514 71.1259C92.3635 71.2388 92.1363 71.2952 91.8325 71.2952V70.7613C91.9815 70.7613 92.0886 70.736 92.1537 70.6853C92.2188 70.6361 92.2514 70.5565 92.2514 70.4466C92.2514 70.2816 92.1761 70.1586 92.0257 70.0776C91.8752 69.9966 91.6617 69.956 91.3854 69.956ZM90.3956 68.9251H90.8601V70.5052H90.3956V68.9251ZM90.3956 69.4221H92.6963V69.8692L92.0365 69.956H90.3956V69.4221ZM92.2318 69.0119H92.6963V69.8388L92.2318 69.8822V69.0119ZM89.3538 71.5188L89.8248 71.4971L89.8682 71.8791C89.8856 72.0209 89.9239 72.1424 89.9832 72.2437C90.0426 72.345 90.1308 72.4318 90.248 72.5042C90.3652 72.5765 90.5186 72.6395 90.7082 72.693L92.6963 73.2552V73.8195L90.5997 73.1662C90.3233 73.0793 90.1012 72.9802 89.9333 72.8688C89.7655 72.7588 89.6396 72.6279 89.5557 72.476C89.4717 72.324 89.4189 72.1424 89.3972 71.9312L89.3538 71.5188ZM90.3956 72.3045L92.6963 71.4754V72.0397L90.8341 72.6822V72.7733H90.3956V72.3045Z" fill="#252525"/>
</g>
<g filter="url(#filter6_i_311_50422)">
<rect x="99.53" y="9.91602" width="20.9556" height="109.083" fill="url(#paint6_linear_311_50422)"/>
<rect x="99.6094" y="9.99539" width="20.7968" height="108.925" stroke="#C8C8C7" stroke-width="0.158754"/>
<path d="M109.746 58.9495L110.321 59.0146V59.0407L111.677 59.3098V59.6245L111.13 59.6462V59.5138L109.746 59.223V58.9495ZM108.595 57.9771H111.677V58.4698H108.595V57.9771ZM109.746 58.8236L111.13 58.5328V58.4004L111.677 58.4221V58.7368L110.321 59.0059V59.0233L109.746 59.0776V58.8236ZM108.595 59.5768H111.677V60.0695H108.595V59.5768ZM108.574 62.0706L109.255 62.0294L109.511 61.999H110.019C110.154 61.999 110.252 61.9462 110.314 61.8406C110.378 61.7349 110.413 61.5772 110.419 61.3674L110.434 60.7944L110.918 60.8378L110.911 61.324C110.905 61.7263 110.823 62.0251 110.664 62.2204C110.506 62.4157 110.275 62.5134 109.971 62.5134H109.077L109.029 62.8607H108.595L108.574 62.0706ZM108.552 61.2784C108.552 61.0353 108.611 60.8465 108.73 60.7119C108.849 60.5788 109.016 60.5122 109.233 60.5122C109.485 60.5122 109.678 60.6019 109.813 60.7814C109.948 60.9608 110.015 61.2147 110.015 61.5432C110.015 61.6734 110.008 61.7877 109.993 61.8861C109.979 61.9845 109.956 62.0786 109.926 62.1683L109.526 62.0728C109.548 61.9787 109.56 61.8912 109.563 61.8102C109.568 61.7291 109.57 61.6445 109.57 61.5562C109.57 61.2147 109.469 61.044 109.268 61.044C109.18 61.044 109.113 61.0737 109.066 61.133C109.02 61.1938 108.997 61.2813 108.997 61.3956C108.997 61.5287 109.021 61.6402 109.068 61.7299C109.118 61.8196 109.179 61.8869 109.253 61.9317C109.328 61.9766 109.406 61.999 109.485 61.999H109.672L109.082 62.1032V61.9187L109.151 61.9947C109.018 61.9918 108.906 61.9607 108.817 61.9013C108.728 61.8435 108.662 61.7617 108.617 61.6561C108.574 61.5504 108.552 61.4246 108.552 61.2784ZM108.552 64.6926C108.552 64.3149 108.629 64.0421 108.782 63.8743C108.935 63.7064 109.181 63.6225 109.518 63.6225H109.854V64.1565H109.561C109.383 64.1565 109.254 64.2013 109.173 64.291C109.092 64.3822 109.051 64.5305 109.051 64.736C109.051 64.804 109.055 64.8771 109.062 64.9552C109.071 65.0333 109.082 65.1223 109.095 65.2222L108.604 65.2742C108.587 65.1773 108.574 65.0818 108.565 64.9877C108.556 64.8951 108.552 64.7967 108.552 64.6926ZM109.702 63.6225H111.591V64.1565H109.702V63.6225ZM110.41 63.0604H110.896V65.1874H110.41V63.0604ZM108.595 67.2602H110.028C110.164 67.2602 110.268 67.2284 110.34 67.1647C110.414 67.1011 110.451 67.0113 110.451 66.8956C110.451 66.5744 110.242 66.4137 109.824 66.4137L110.479 66.2792V66.4658C110.634 66.4832 110.749 66.5367 110.824 66.6265C110.901 66.7176 110.939 66.8529 110.939 67.0323C110.939 67.2754 110.866 67.4635 110.718 67.5967C110.57 67.7298 110.362 67.7963 110.093 67.7963H108.595V67.2602ZM108.595 65.8776H111.851V66.4137H108.595V65.8776ZM108.552 69.2636C108.552 69.0885 108.558 68.9358 108.569 68.8056C108.579 68.6754 108.595 68.5589 108.617 68.4562L109.121 68.5191C109.097 68.6884 109.08 68.8338 109.068 68.9554C109.057 69.0769 109.051 69.1796 109.051 69.2636C109.051 69.4748 109.068 69.6275 109.103 69.7215C109.138 69.817 109.193 69.8648 109.268 69.8648C109.316 69.8648 109.353 69.851 109.379 69.8236C109.405 69.7961 109.426 69.7527 109.442 69.6933L109.626 69.0313C109.677 68.849 109.746 68.713 109.835 68.6233C109.924 68.535 110.05 68.4909 110.212 68.4909C110.461 68.4909 110.644 68.5915 110.761 68.7926C110.88 68.9952 110.939 69.3099 110.939 69.7367C110.939 69.8409 110.936 69.9437 110.929 70.0449C110.921 70.1477 110.911 70.2548 110.896 70.3662L110.41 70.3097C110.421 70.1839 110.429 70.0732 110.434 69.9777C110.438 69.8836 110.44 69.799 110.44 69.7237C110.44 69.485 110.424 69.3113 110.39 69.2028C110.357 69.0957 110.303 69.0422 110.23 69.0422C110.181 69.0422 110.144 69.0581 110.121 69.0899C110.098 69.1218 110.078 69.171 110.06 69.2375L109.911 69.7932C109.856 70.0088 109.778 70.1679 109.678 70.2707C109.579 70.3749 109.443 70.4269 109.27 70.4269C109.024 70.4269 108.843 70.3322 108.726 70.1426C108.61 69.9545 108.552 69.6615 108.552 69.2636Z" fill="#252525"/>
</g>
</g>
<defs>
<filter id="filter0_i_311_50422" x="0" y="22.582" width="12.9036" height="96.418" filterUnits="userSpaceOnUse" color-interpolation-filters="sRGB">
<feFlood flood-opacity="0" result="BackgroundImageFix"/>
<feBlend mode="normal" in="SourceGraphic" in2="BackgroundImageFix" result="shape"/>
<feColorMatrix in="SourceAlpha" type="matrix" values="0 0 0 0 0 0 0 0 0 0 0 0 0 0 0 0 0 0 127 0" result="hardAlpha"/>
<feMorphology radius="0.317509" operator="erode" in="SourceAlpha" result="effect1_innerShadow_311_50422"/>
<feOffset/>
<feGaussianBlur stdDeviation="2.85758"/>
<feComposite in2="hardAlpha" operator="arithmetic" k2="-1" k3="1"/>
<feColorMatrix type="matrix" values="0 0 0 0 1 0 0 0 0 1 0 0 0 0 1 0 0 0 0.5 0"/>
<feBlend mode="normal" in2="shape" result="effect1_innerShadow_311_50422"/>
</filter>
<filter id="filter1_i_311_50422" x="14.1737" y="1.19531" width="12.9036" height="117.805" filterUnits="userSpaceOnUse" color-interpolation-filters="sRGB">
<feFlood flood-opacity="0" result="BackgroundImageFix"/>
<feBlend mode="normal" in="SourceGraphic" in2="BackgroundImageFix" result="shape"/>
<feColorMatrix in="SourceAlpha" type="matrix" values="0 0 0 0 0 0 0 0 0 0 0 0 0 0 0 0 0 0 127 0" result="hardAlpha"/>
<feMorphology radius="0.317509" operator="erode" in="SourceAlpha" result="effect1_innerShadow_311_50422"/>
<feOffset/>
<feGaussianBlur stdDeviation="2.85758"/>
<feComposite in2="hardAlpha" operator="arithmetic" k2="-1" k3="1"/>
<feColorMatrix type="matrix" values="0 0 0 0 1 0 0 0 0 1 0 0 0 0 1 0 0 0 0.5 0"/>
<feBlend mode="normal" in2="shape" result="effect1_innerShadow_311_50422"/>
</filter>
<filter id="filter2_i_311_50422" x="28.3473" y="5.97461" width="12.9036" height="113.025" filterUnits="userSpaceOnUse" color-interpolation-filters="sRGB">
<feFlood flood-opacity="0" result="BackgroundImageFix"/>
<feBlend mode="normal" in="SourceGraphic" in2="BackgroundImageFix" result="shape"/>
<feColorMatrix in="SourceAlpha" type="matrix" values="0 0 0 0 0 0 0 0 0 0 0 0 0 0 0 0 0 0 127 0" result="hardAlpha"/>
<feMorphology radius="0.317509" operator="erode" in="SourceAlpha" result="effect1_innerShadow_311_50422"/>
<feOffset/>
<feGaussianBlur stdDeviation="2.85758"/>
<feComposite in2="hardAlpha" operator="arithmetic" k2="-1" k3="1"/>
<feColorMatrix type="matrix" values="0 0 0 0 1 0 0 0 0 1 0 0 0 0 1 0 0 0 0.5 0"/>
<feBlend mode="normal" in2="shape" result="effect1_innerShadow_311_50422"/>
</filter>
<filter id="filter3_i_311_50422" x="42.521" y="0" width="14.0984" height="119" filterUnits="userSpaceOnUse" color-interpolation-filters="sRGB">
<feFlood flood-opacity="0" result="BackgroundImageFix"/>
<feBlend mode="normal" in="SourceGraphic" in2="BackgroundImageFix" result="shape"/>
<feColorMatrix in="SourceAlpha" type="matrix" values="0 0 0 0 0 0 0 0 0 0 0 0 0 0 0 0 0 0 127 0" result="hardAlpha"/>
<feMorphology radius="0.317509" operator="erode" in="SourceAlpha" result="effect1_innerShadow_311_50422"/>
<feOffset/>
<feGaussianBlur stdDeviation="2.85758"/>
<feComposite in2="hardAlpha" operator="arithmetic" k2="-1" k3="1"/>
<feColorMatrix type="matrix" values="0 0 0 0 1 0 0 0 0 1 0 0 0 0 1 0 0 0 0.5 0"/>
<feBlend mode="normal" in2="shape" result="effect1_innerShadow_311_50422"/>
</filter>
<filter id="filter4_i_311_50422" x="57.8894" y="21.7246" width="26.197" height="97.2754" filterUnits="userSpaceOnUse" color-interpolation-filters="sRGB">
<feFlood flood-opacity="0" result="BackgroundImageFix"/>
<feBlend mode="normal" in="SourceGraphic" in2="BackgroundImageFix" result="shape"/>
<feColorMatrix in="SourceAlpha" type="matrix" values="0 0 0 0 0 0 0 0 0 0 0 0 0 0 0 0 0 0 127 0" result="hardAlpha"/>
<feMorphology radius="0.317509" operator="erode" in="SourceAlpha" result="effect1_innerShadow_311_50422"/>
<feOffset/>
<feGaussianBlur stdDeviation="2.85758"/>
<feComposite in2="hardAlpha" operator="arithmetic" k2="-1" k3="1"/>
<feColorMatrix type="matrix" values="0 0 0 0 1 0 0 0 0 1 0 0 0 0 1 0 0 0 0.5 0"/>
<feBlend mode="normal" in2="shape" result="effect1_innerShadow_311_50422"/>
</filter>
<filter id="filter5_i_311_50422" x="85.3563" y="5.97461" width="12.9036" height="113.025" filterUnits="userSpaceOnUse" color-interpolation-filters="sRGB">
<feFlood flood-opacity="0" result="BackgroundImageFix"/>
<feBlend mode="normal" in="SourceGraphic" in2="BackgroundImageFix" result="shape"/>
<feColorMatrix in="SourceAlpha" type="matrix" values="0 0 0 0 0 0 0 0 0 0 0 0 0 0 0 0 0 0 127 0" result="hardAlpha"/>
<feMorphology radius="0.317509" operator="erode" in="SourceAlpha" result="effect1_innerShadow_311_50422"/>
<feOffset/>
<feGaussianBlur stdDeviation="2.85758"/>
<feComposite in2="hardAlpha" operator="arithmetic" k2="-1" k3="1"/>
<feColorMatrix type="matrix" values="0 0 0 0 1 0 0 0 0 1 0 0 0 0 1 0 0 0 0.5 0"/>
<feBlend mode="normal" in2="shape" result="effect1_innerShadow_311_50422"/>
</filter>
<filter id="filter6_i_311_50422" x="99.53" y="9.91602" width="20.9556" height="109.084" filterUnits="userSpaceOnUse" color-interpolation-filters="sRGB">
<feFlood flood-opacity="0" result="BackgroundImageFix"/>
<feBlend mode="normal" in="SourceGraphic" in2="BackgroundImageFix" result="shape"/>
<feColorMatrix in="SourceAlpha" type="matrix" values="0 0 0 0 0 0 0 0 0 0 0 0 0 0 0 0 0 0 127 0" result="hardAlpha"/>
<feMorphology radius="0.317509" operator="erode" in="SourceAlpha" result="effect1_innerShadow_311_50422"/>
<feOffset/>
<feGaussianBlur stdDeviation="2.85758"/>
<feComposite in2="hardAlpha" operator="arithmetic" k2="-1" k3="1"/>
<feColorMatrix type="matrix" values="0 0 0 0 1 0 0 0 0 1 0 0 0 0 1 0 0 0 0.5 0"/>
<feBlend mode="normal" in2="shape" result="effect1_innerShadow_311_50422"/>
</filter>
<linearGradient id="paint0_linear_311_50422" x1="6.45181" y1="22.582" x2="6.45181" y2="119.001" gradientUnits="userSpaceOnUse">
<stop stop-color="#FFD591"/>
<stop offset="1" stop-color="#FFA941"/>
</linearGradient>
<linearGradient id="paint1_linear_311_50422" x1="20.6255" y1="1.19531" x2="20.6255" y2="119.001" gradientUnits="userSpaceOnUse">
<stop stop-color="#91D4FE"/>
<stop offset="1" stop-color="#40A8FF"/>
</linearGradient>
<linearGradient id="paint2_linear_311_50422" x1="34.7991" y1="5.97461" x2="34.7991" y2="119.001" gradientUnits="userSpaceOnUse">
<stop stop-color="#FFF491"/>
<stop offset="1" stop-color="#FFDE41"/>
</linearGradient>
<linearGradient id="paint3_linear_311_50422" x1="49.5702" y1="0" x2="49.5702" y2="119" gradientUnits="userSpaceOnUse">
<stop stop-color="#FEA39E"/>
<stop offset="1" stop-color="#FF4C4F"/>
</linearGradient>
<linearGradient id="paint4_linear_311_50422" x1="77.7602" y1="21.7246" x2="77.7602" y2="118.143" gradientUnits="userSpaceOnUse">
<stop stop-color="#B6F46A"/>
<stop offset="1" stop-color="#A0DE55"/>
</linearGradient>
<linearGradient id="paint5_linear_311_50422" x1="91.8081" y1="5.97461" x2="91.8081" y2="119.001" gradientUnits="userSpaceOnUse">
<stop stop-color="#D3ADFA"/>
<stop offset="1" stop-color="#9253DF"/>
</linearGradient>
<linearGradient id="paint6_linear_311_50422" x1="110.008" y1="9.91602" x2="110.008" y2="118.999" gradientUnits="userSpaceOnUse">
<stop stop-color="#C1C9CC"/>
<stop offset="1" stop-color="#74818A"/>
</linearGradient>
<clipPath id="clip0_311_50422">
<rect width="120.486" height="119" fill="white"/>
</clipPath>
</defs>
</svg>
